<svg width="115" height="35" viewBox="0 0 115 35" fill="none" xmlns="http://www.w3.org/2000/svg">
<path d="M9.23857 33.8402L8.75857 29.0402H5.15857L4.67857 33.8402H0.93457L4.29457 0.240234H10.0546L13.4626 33.8402H9.23857ZM5.73457 22.7522L5.54257 25.1042H8.37457L8.18257 22.8962C7.57457 16.0802 7.15857 10.0162 6.93457 4.70423C6.74257 9.40824 6.34257 15.4242 5.73457 22.7522Z" fill="black"/>
<path d="M17.5122 33.8402V0.240234H24.2802C26.1362 0.240234 27.3842 0.608234 28.0242 1.34423C28.6642 2.08023 28.9842 3.47223 28.9842 5.52024V15.8882C28.9842 17.9362 28.6642 19.3282 28.0242 20.0642C27.3842 20.8002 26.1362 21.1682 24.2802 21.1682H21.6882V33.8402H17.5122ZM21.6882 17.2322H23.4642C24.0402 17.2322 24.4082 17.1042 24.5682 16.8482C24.7282 16.5922 24.8082 16.0802 24.8082 15.3122V6.09624C24.8082 5.32823 24.7282 4.81623 24.5682 4.56024C24.4082 4.30424 24.0402 4.17624 23.4642 4.17624H21.6882V17.2322Z" fill="black"/>
<path d="M39.8198 33.8402L39.3398 29.0402H35.7398L35.2598 33.8402H31.5158L34.8758 0.240234H40.6358L44.0438 33.8402H39.8198ZM36.3158 22.7522L36.1238 25.1042H38.9558L38.7638 22.8962C38.1558 16.0802 37.7398 10.0162 37.5158 4.70423C37.3238 9.40824 36.9238 15.4242 36.3158 22.7522Z" fill="black"/>
<path d="M59.6614 21.8882V29.2802C59.6614 31.2002 59.8694 32.7202 60.2854 33.8402H55.9174C55.6294 33.2322 55.4854 31.8882 55.4854 29.8082V21.0722C55.4854 20.2722 55.3734 19.7122 55.1494 19.3922C54.9254 19.0402 54.4934 18.8642 53.8534 18.8642H52.2214V33.8402H48.0454V0.240234H54.9094C56.7654 0.240234 58.0134 0.608234 58.6534 1.34423C59.3254 2.08023 59.6614 3.47223 59.6614 5.52024V11.9522C59.6614 13.4882 59.4855 14.6402 59.1334 15.4082C58.7814 16.1442 58.1734 16.6402 57.3094 16.8962C58.1734 17.1522 58.7814 17.6642 59.1334 18.4322C59.4855 19.2002 59.6614 20.3522 59.6614 21.8882ZM55.4854 13.0082V6.09624C55.4854 5.32823 55.4054 4.81623 55.2454 4.56024C55.0854 4.30424 54.7174 4.17624 54.1414 4.17624H52.2214V14.9282H54.1414C54.7174 14.9282 55.0854 14.8002 55.2454 14.5442C55.4054 14.2882 55.4854 13.7762 55.4854 13.0082Z" fill="black"/>
<path d="M68.5444 4.17624V14.3522H72.3844V18.2882H68.5444V29.9042H73.2484V33.8402H64.3684V0.240234H73.2484V4.17624H68.5444Z" fill="black"/>
<path d="M77.5028 33.8402V0.240234H81.6788V29.9042H85.7588V33.8402H77.5028Z" fill="black"/>
<path d="M109.899 28.224V24C109.899 22.72 109.707 21.712 109.323 20.976C108.939 20.24 108.107 19.184 106.827 17.808C105.227 15.984 104.155 14.528 103.611 13.44C103.099 12.32 102.843 10.752 102.843 8.736V5.28C102.843 3.232 103.163 1.84 103.803 1.104C104.475 0.368 105.739 0 107.595 0H109.371C111.227 0 112.475 0.368 113.115 1.104C113.755 1.84 114.075 3.232 114.075 5.28V11.856H110.139V5.856C110.139 5.088 110.059 4.576 109.899 4.32C109.771 4.064 109.403 3.936 108.795 3.936H108.363C107.787 3.936 107.419 4.064 107.259 4.32C107.099 4.576 107.019 5.056 107.019 5.76V8.928C107.019 10.208 107.195 11.216 107.547 11.952C107.931 12.688 108.763 13.744 110.043 15.12C111.675 16.944 112.747 18.416 113.259 19.536C113.803 20.624 114.075 22.176 114.075 24.192V28.8C114.075 30.848 113.755 32.24 113.115 32.976C112.475 33.712 111.227 34.08 109.371 34.08H107.595C105.739 34.08 104.475 33.712 103.803 32.976C103.163 32.24 102.843 30.848 102.843 28.8V20.976H106.779V28.224C106.779 28.992 106.843 29.504 106.971 29.76C107.131 30.016 107.515 30.144 108.123 30.144H108.555C109.131 30.144 109.499 30.016 109.659 29.76C109.819 29.504 109.899 28.992 109.899 28.224Z" fill="black"/>
<path d="M89.1171 19.2272C86.4064 17.8018 85.6136 15.6368 85.9543 12.8804C89.1231 13.5571 90.3873 16.1679 89.1171 19.2272Z" fill="black"/>
<path d="M95.2839 6.70484C94.4146 3.87195 95.2427 2.1114 97.8197 1.16422C98.5176 3.91491 97.532 6.12428 95.2839 6.70484Z" fill="black"/>
<path d="M89.6904 17.914C91.1497 15.8731 93.1652 15.801 95.6998 17.6991C93.7507 19.6306 91.7724 19.7014 89.6904 17.914Z" fill="black"/>
<path d="M93.9925 10.0332C95.8375 7.65566 97.7525 7.38961 99.8428 7.72949C98.47 10.3759 96.3138 11.2733 93.9925 10.0332Z" fill="black"/>
<path d="M89.2621 9.39552C91.7511 10.537 92.2908 12.4624 92.1862 14.7795C89.9796 14.005 88.9801 12.2689 89.2621 9.39552Z" fill="black"/>
<path d="M82.9505 16.9867C85.5328 17.6401 86.5428 19.4358 85.9264 22.4901C83.408 21.8438 82.3332 19.8267 82.9505 16.9867Z" fill="black"/>
<path d="M85.8108 22.6097C87.909 20.6042 89.7131 20.554 91.8484 22.4237C90.015 24.3477 88.4491 24.4133 85.8108 22.6097Z" fill="black"/>
<path d="M98.7248 12.6511C96.7355 14.2798 94.6812 14.6713 92.4508 13.8217C93.9021 11.7046 96.4425 11.2035 98.7248 12.6511Z" fill="black"/>
<path d="M93.9291 10.7809C92.4115 9.29535 91.4337 7.79123 91.813 5.5915C94.0785 6.56465 94.7902 8.16961 93.9291 10.7809Z" fill="black"/>
<path fill-rule="evenodd" clip-rule="evenodd" d="M95.1258 7.91478C94.5959 9.47973 93.7164 11.6049 92.3147 14.3028C90.897 17.0317 88.5875 19.8564 86.2919 22.2702C83.9932 24.6872 81.6899 26.7115 80.2663 27.8398L79.8428 27.2658C81.2415 26.1572 83.5202 24.1551 85.7953 21.7629C88.0735 19.3674 90.3294 16.5999 91.7008 13.9602C93.0882 11.2896 93.9519 9.19911 94.4679 7.67544C94.9882 6.13903 95.1455 5.20613 95.1455 4.83984H95.8428C95.8428 5.3339 95.6515 6.36258 95.1258 7.91478Z" fill="black"/>
</svg>
