<svg width="1920" height="186" viewBox="0 0 1920 186" fill="none" xmlns="http://www.w3.org/2000/svg">
<rect width="1920" height="186" fill="white"/>
<rect width="1920" height="38" fill="#F2F2F2"/>
<path d="M1197.59 14.5469L1199.88 17.9609L1202.16 14.5469H1203.27L1200.41 18.6875L1203.39 23H1202.3L1199.88 19.4297L1197.48 23H1196.38L1199.37 18.6875L1196.5 14.5469H1197.59Z" fill="#717171"/>
<path d="M765.043 19.5254H762.611V18.9102H765.043C765.551 18.9102 765.963 18.8281 766.279 18.6641C766.6 18.4961 766.832 18.2695 766.977 17.9844C767.125 17.6992 767.199 17.3789 767.199 17.0234C767.199 16.6758 767.125 16.3555 766.977 16.0625C766.832 15.7695 766.6 15.5352 766.279 15.3594C765.963 15.1797 765.551 15.0898 765.043 15.0898H762.863V23H762.143V14.4688H765.043C765.668 14.4688 766.193 14.5762 766.619 14.791C767.049 15.0059 767.373 15.3047 767.592 15.6875C767.811 16.0703 767.92 16.5117 767.92 17.0117C767.92 17.5352 767.811 17.9863 767.592 18.3652C767.373 18.7402 767.051 19.0273 766.625 19.2266C766.199 19.4258 765.672 19.5254 765.043 19.5254ZM770.152 14V23H769.455V14H770.152ZM774.518 23.1172C774.104 23.1172 773.723 23.041 773.375 22.8887C773.031 22.7363 772.73 22.5215 772.473 22.2441C772.219 21.9668 772.021 21.6387 771.881 21.2598C771.744 20.877 771.676 20.459 771.676 20.0059V19.7539C771.676 19.2656 771.748 18.8242 771.893 18.4297C772.037 18.0352 772.236 17.6973 772.49 17.416C772.744 17.1348 773.033 16.9199 773.357 16.7715C773.686 16.6191 774.029 16.543 774.389 16.543C774.791 16.543 775.148 16.6152 775.461 16.7598C775.773 16.9004 776.035 17.1016 776.246 17.3633C776.461 17.6211 776.623 17.9277 776.732 18.2832C776.842 18.6348 776.896 19.0234 776.896 19.4492V19.877H772.098V19.2793H776.199V19.1973C776.191 18.8418 776.119 18.5098 775.982 18.2012C775.85 17.8887 775.65 17.6348 775.385 17.4395C775.119 17.2441 774.787 17.1465 774.389 17.1465C774.092 17.1465 773.818 17.209 773.568 17.334C773.322 17.459 773.109 17.6387 772.93 17.873C772.754 18.1035 772.617 18.3789 772.52 18.6992C772.426 19.0156 772.379 19.3672 772.379 19.7539V20.0059C772.379 20.3574 772.43 20.6855 772.531 20.9902C772.637 21.291 772.785 21.5566 772.977 21.7871C773.172 22.0176 773.402 22.1973 773.668 22.3262C773.934 22.4551 774.227 22.5195 774.547 22.5195C774.922 22.5195 775.254 22.4512 775.543 22.3145C775.832 22.1738 776.092 21.9531 776.322 21.6523L776.762 21.9922C776.625 22.1953 776.453 22.3828 776.246 22.5547C776.043 22.7266 775.799 22.8633 775.514 22.9648C775.229 23.0664 774.896 23.1172 774.518 23.1172ZM782.135 21.8633V18.5938C782.135 18.293 782.072 18.0332 781.947 17.8145C781.822 17.5957 781.639 17.4277 781.396 17.3105C781.154 17.1934 780.855 17.1348 780.5 17.1348C780.172 17.1348 779.879 17.1934 779.621 17.3105C779.367 17.4238 779.166 17.5781 779.018 17.7734C778.873 17.9648 778.801 18.1777 778.801 18.4121L778.098 18.4062C778.098 18.168 778.156 17.9375 778.273 17.7148C778.391 17.4922 778.557 17.293 778.771 17.1172C778.986 16.9414 779.242 16.8027 779.539 16.7012C779.84 16.5957 780.17 16.543 780.529 16.543C780.982 16.543 781.381 16.6191 781.725 16.7715C782.072 16.9238 782.344 17.1523 782.539 17.457C782.734 17.7617 782.832 18.1445 782.832 18.6055V21.6699C782.832 21.8887 782.848 22.1152 782.879 22.3496C782.914 22.584 782.963 22.7773 783.025 22.9297V23H782.281C782.234 22.8594 782.197 22.6836 782.17 22.4727C782.146 22.2578 782.135 22.0547 782.135 21.8633ZM782.299 19.3086L782.311 19.8477H780.934C780.574 19.8477 780.252 19.8809 779.967 19.9473C779.686 20.0098 779.447 20.1035 779.252 20.2285C779.057 20.3496 778.906 20.4961 778.801 20.668C778.699 20.8398 778.648 21.0352 778.648 21.2539C778.648 21.4805 778.705 21.6875 778.818 21.875C778.936 22.0625 779.1 22.2129 779.311 22.3262C779.525 22.4355 779.779 22.4902 780.072 22.4902C780.463 22.4902 780.807 22.418 781.104 22.2734C781.404 22.1289 781.652 21.9395 781.848 21.7051C782.043 21.4707 782.174 21.2148 782.24 20.9375L782.545 21.3418C782.494 21.5371 782.4 21.7383 782.264 21.9453C782.131 22.1484 781.957 22.3398 781.742 22.5195C781.527 22.6953 781.273 22.8398 780.98 22.9531C780.691 23.0625 780.363 23.1172 779.996 23.1172C779.582 23.1172 779.221 23.0391 778.912 22.8828C778.607 22.7266 778.369 22.5137 778.197 22.2441C778.029 21.9707 777.945 21.6621 777.945 21.3184C777.945 21.0059 778.012 20.7266 778.145 20.4805C778.277 20.2305 778.469 20.0195 778.719 19.8477C778.973 19.6719 779.277 19.5391 779.633 19.4492C779.992 19.3555 780.395 19.3086 780.84 19.3086H782.299ZM788.51 21.3828C788.51 21.2109 788.467 21.041 788.381 20.873C788.295 20.7051 788.129 20.5508 787.883 20.4102C787.641 20.2695 787.283 20.1504 786.811 20.0527C786.459 19.9746 786.145 19.8867 785.867 19.7891C785.594 19.6914 785.363 19.5742 785.176 19.4375C784.988 19.3008 784.846 19.1367 784.748 18.9453C784.65 18.7539 784.602 18.5273 784.602 18.2656C784.602 18.0312 784.652 17.8105 784.754 17.6035C784.859 17.3926 785.008 17.209 785.199 17.0527C785.395 16.8926 785.629 16.7676 785.902 16.6777C786.18 16.5879 786.49 16.543 786.834 16.543C787.322 16.543 787.74 16.627 788.088 16.7949C788.439 16.959 788.707 17.1836 788.891 17.4688C789.078 17.7539 789.172 18.0762 789.172 18.4355H788.475C788.475 18.2168 788.41 18.0098 788.281 17.8145C788.156 17.6191 787.971 17.459 787.725 17.334C787.482 17.209 787.186 17.1465 786.834 17.1465C786.471 17.1465 786.176 17.2012 785.949 17.3105C785.723 17.4199 785.557 17.5586 785.451 17.7266C785.35 17.8945 785.299 18.0684 785.299 18.248C785.299 18.3887 785.32 18.5176 785.363 18.6348C785.41 18.748 785.492 18.8535 785.609 18.9512C785.73 19.0488 785.902 19.1406 786.125 19.2266C786.348 19.3125 786.637 19.3965 786.992 19.4785C787.504 19.5918 787.922 19.7305 788.246 19.8945C788.574 20.0547 788.816 20.2539 788.973 20.4922C789.129 20.7266 789.207 21.0117 789.207 21.3477C789.207 21.6094 789.152 21.8496 789.043 22.0684C788.934 22.2832 788.775 22.4688 788.568 22.625C788.365 22.7812 788.119 22.9023 787.83 22.9883C787.545 23.0742 787.225 23.1172 786.869 23.1172C786.334 23.1172 785.881 23.0293 785.51 22.8535C785.143 22.6738 784.863 22.4395 784.672 22.1504C784.484 21.8574 784.391 21.5469 784.391 21.2188H785.088C785.111 21.5469 785.215 21.8066 785.398 21.998C785.582 22.1855 785.807 22.3184 786.072 22.3965C786.342 22.4746 786.607 22.5137 786.869 22.5137C787.229 22.5137 787.529 22.4609 787.771 22.3555C788.014 22.25 788.197 22.1113 788.322 21.9395C788.447 21.7676 788.51 21.582 788.51 21.3828ZM793.244 23.1172C792.83 23.1172 792.449 23.041 792.102 22.8887C791.758 22.7363 791.457 22.5215 791.199 22.2441C790.945 21.9668 790.748 21.6387 790.607 21.2598C790.471 20.877 790.402 20.459 790.402 20.0059V19.7539C790.402 19.2656 790.475 18.8242 790.619 18.4297C790.764 18.0352 790.963 17.6973 791.217 17.416C791.471 17.1348 791.76 16.9199 792.084 16.7715C792.412 16.6191 792.756 16.543 793.115 16.543C793.518 16.543 793.875 16.6152 794.188 16.7598C794.5 16.9004 794.762 17.1016 794.973 17.3633C795.188 17.6211 795.35 17.9277 795.459 18.2832C795.568 18.6348 795.623 19.0234 795.623 19.4492V19.877H790.824V19.2793H794.926V19.1973C794.918 18.8418 794.846 18.5098 794.709 18.2012C794.576 17.8887 794.377 17.6348 794.111 17.4395C793.846 17.2441 793.514 17.1465 793.115 17.1465C792.818 17.1465 792.545 17.209 792.295 17.334C792.049 17.459 791.836 17.6387 791.656 17.873C791.48 18.1035 791.344 18.3789 791.246 18.6992C791.152 19.0156 791.105 19.3672 791.105 19.7539V20.0059C791.105 20.3574 791.156 20.6855 791.258 20.9902C791.363 21.291 791.512 21.5566 791.703 21.7871C791.898 22.0176 792.129 22.1973 792.395 22.3262C792.66 22.4551 792.953 22.5195 793.273 22.5195C793.648 22.5195 793.98 22.4512 794.27 22.3145C794.559 22.1738 794.818 21.9531 795.049 21.6523L795.488 21.9922C795.352 22.1953 795.18 22.3828 794.973 22.5547C794.77 22.7266 794.525 22.8633 794.24 22.9648C793.955 23.0664 793.623 23.1172 793.244 23.1172ZM800.633 18.0137V23H799.936V16.6602H800.604L800.633 18.0137ZM800.475 19.4375L800.164 19.2617C800.188 18.8867 800.264 18.5352 800.393 18.207C800.521 17.8789 800.695 17.5898 800.914 17.3398C801.137 17.0898 801.396 16.8945 801.693 16.7539C801.994 16.6133 802.326 16.543 802.689 16.543C803.006 16.543 803.289 16.5859 803.539 16.6719C803.789 16.7578 804.002 16.8945 804.178 17.082C804.354 17.2695 804.486 17.5098 804.576 17.8027C804.67 18.0957 804.717 18.4531 804.717 18.875V23H804.014V18.8691C804.014 18.4316 803.953 18.0898 803.832 17.8438C803.711 17.5938 803.539 17.416 803.316 17.3105C803.094 17.2051 802.83 17.1523 802.525 17.1523C802.189 17.1523 801.895 17.2266 801.641 17.375C801.391 17.5195 801.18 17.709 801.008 17.9434C800.84 18.1738 800.711 18.4219 800.621 18.6875C800.531 18.9492 800.482 19.1992 800.475 19.4375ZM806.146 19.9297V19.7363C806.146 19.2754 806.213 18.8496 806.346 18.459C806.479 18.0684 806.668 17.7305 806.914 17.4453C807.164 17.1602 807.463 16.9395 807.811 16.7832C808.158 16.623 808.545 16.543 808.971 16.543C809.4 16.543 809.789 16.623 810.137 16.7832C810.484 16.9395 810.783 17.1602 811.033 17.4453C811.283 17.7305 811.475 18.0684 811.607 18.459C811.74 18.8496 811.807 19.2754 811.807 19.7363V19.9297C811.807 20.3906 811.74 20.8164 811.607 21.207C811.475 21.5938 811.283 21.9297 811.033 22.2148C810.787 22.5 810.49 22.7227 810.143 22.8828C809.795 23.0391 809.408 23.1172 808.982 23.1172C808.553 23.1172 808.164 23.0391 807.816 22.8828C807.469 22.7227 807.17 22.5 806.92 22.2148C806.67 21.9297 806.479 21.5938 806.346 21.207C806.213 20.8164 806.146 20.3906 806.146 19.9297ZM806.844 19.7363V19.9297C806.844 20.2773 806.891 20.6074 806.984 20.9199C807.078 21.2285 807.215 21.5039 807.395 21.7461C807.574 21.9844 807.797 22.1719 808.062 22.3086C808.328 22.4453 808.635 22.5137 808.982 22.5137C809.326 22.5137 809.629 22.4453 809.891 22.3086C810.156 22.1719 810.379 21.9844 810.559 21.7461C810.738 21.5039 810.873 21.2285 810.963 20.9199C811.057 20.6074 811.104 20.2773 811.104 19.9297V19.7363C811.104 19.3926 811.057 19.0664 810.963 18.7578C810.873 18.4492 810.736 18.1738 810.553 17.9316C810.373 17.6895 810.15 17.498 809.885 17.3574C809.619 17.2168 809.314 17.1465 808.971 17.1465C808.627 17.1465 808.322 17.2168 808.057 17.3574C807.795 17.498 807.572 17.6895 807.389 17.9316C807.209 18.1738 807.072 18.4492 806.979 18.7578C806.889 19.0664 806.844 19.3926 806.844 19.7363ZM815.656 16.6602V17.2344H812.48V16.6602H815.656ZM813.646 15.0312H814.344V21.459C814.344 21.752 814.383 21.9727 814.461 22.1211C814.539 22.2695 814.641 22.3691 814.766 22.4199C814.891 22.4707 815.025 22.4961 815.17 22.4961C815.275 22.4961 815.377 22.4902 815.475 22.4785C815.572 22.4629 815.66 22.4473 815.738 22.4316L815.768 23.0234C815.682 23.0508 815.57 23.0723 815.434 23.0879C815.297 23.1074 815.16 23.1172 815.023 23.1172C814.754 23.1172 814.516 23.0684 814.309 22.9707C814.102 22.8691 813.939 22.6973 813.822 22.4551C813.705 22.209 813.646 21.875 813.646 21.4531V15.0312ZM819.576 23.1172C819.162 23.1172 818.781 23.041 818.434 22.8887C818.09 22.7363 817.789 22.5215 817.531 22.2441C817.277 21.9668 817.08 21.6387 816.939 21.2598C816.803 20.877 816.734 20.459 816.734 20.0059V19.7539C816.734 19.2656 816.807 18.8242 816.951 18.4297C817.096 18.0352 817.295 17.6973 817.549 17.416C817.803 17.1348 818.092 16.9199 818.416 16.7715C818.744 16.6191 819.088 16.543 819.447 16.543C819.85 16.543 820.207 16.6152 820.52 16.7598C820.832 16.9004 821.094 17.1016 821.305 17.3633C821.52 17.6211 821.682 17.9277 821.791 18.2832C821.9 18.6348 821.955 19.0234 821.955 19.4492V19.877H817.156V19.2793H821.258V19.1973C821.25 18.8418 821.178 18.5098 821.041 18.2012C820.908 17.8887 820.709 17.6348 820.443 17.4395C820.178 17.2441 819.846 17.1465 819.447 17.1465C819.15 17.1465 818.877 17.209 818.627 17.334C818.381 17.459 818.168 17.6387 817.988 17.873C817.812 18.1035 817.676 18.3789 817.578 18.6992C817.484 19.0156 817.438 19.3672 817.438 19.7539V20.0059C817.438 20.3574 817.488 20.6855 817.59 20.9902C817.695 21.291 817.844 21.5566 818.035 21.7871C818.23 22.0176 818.461 22.1973 818.727 22.3262C818.992 22.4551 819.285 22.5195 819.605 22.5195C819.98 22.5195 820.312 22.4512 820.602 22.3145C820.891 22.1738 821.15 21.9531 821.381 21.6523L821.82 21.9922C821.684 22.1953 821.512 22.3828 821.305 22.5547C821.102 22.7266 820.857 22.8633 820.572 22.9648C820.287 23.0664 819.955 23.1172 819.576 23.1172ZM827.047 16.6602V23H826.35V16.6602H827.047ZM826.227 14.8262C826.227 14.6934 826.268 14.582 826.35 14.4922C826.436 14.3984 826.553 14.3516 826.701 14.3516C826.85 14.3516 826.967 14.3984 827.053 14.4922C827.143 14.582 827.188 14.6934 827.188 14.8262C827.188 14.9551 827.143 15.0664 827.053 15.1602C826.967 15.25 826.85 15.2949 826.701 15.2949C826.553 15.2949 826.436 15.25 826.35 15.1602C826.268 15.0664 826.227 14.9551 826.227 14.8262ZM829.66 18.0137V23H828.963V16.6602H829.631L829.66 18.0137ZM829.502 19.4375L829.191 19.2617C829.215 18.8867 829.291 18.5352 829.42 18.207C829.549 17.8789 829.723 17.5898 829.941 17.3398C830.164 17.0898 830.424 16.8945 830.721 16.7539C831.021 16.6133 831.354 16.543 831.717 16.543C832.033 16.543 832.316 16.5859 832.566 16.6719C832.816 16.7578 833.029 16.8945 833.205 17.082C833.381 17.2695 833.514 17.5098 833.604 17.8027C833.697 18.0957 833.744 18.4531 833.744 18.875V23H833.041V18.8691C833.041 18.4316 832.98 18.0898 832.859 17.8438C832.738 17.5938 832.566 17.416 832.344 17.3105C832.121 17.2051 831.857 17.1523 831.553 17.1523C831.217 17.1523 830.922 17.2266 830.668 17.375C830.418 17.5195 830.207 17.709 830.035 17.9434C829.867 18.1738 829.738 18.4219 829.648 18.6875C829.559 18.9492 829.51 19.1992 829.502 19.4375ZM837.74 18.9336V19.5371H834.934V18.9336H837.74ZM842.803 21.3828C842.803 21.2109 842.76 21.041 842.674 20.873C842.588 20.7051 842.422 20.5508 842.176 20.4102C841.934 20.2695 841.576 20.1504 841.104 20.0527C840.752 19.9746 840.438 19.8867 840.16 19.7891C839.887 19.6914 839.656 19.5742 839.469 19.4375C839.281 19.3008 839.139 19.1367 839.041 18.9453C838.943 18.7539 838.895 18.5273 838.895 18.2656C838.895 18.0312 838.945 17.8105 839.047 17.6035C839.152 17.3926 839.301 17.209 839.492 17.0527C839.688 16.8926 839.922 16.7676 840.195 16.6777C840.473 16.5879 840.783 16.543 841.127 16.543C841.615 16.543 842.033 16.627 842.381 16.7949C842.732 16.959 843 17.1836 843.184 17.4688C843.371 17.7539 843.465 18.0762 843.465 18.4355H842.768C842.768 18.2168 842.703 18.0098 842.574 17.8145C842.449 17.6191 842.264 17.459 842.018 17.334C841.775 17.209 841.479 17.1465 841.127 17.1465C840.764 17.1465 840.469 17.2012 840.242 17.3105C840.016 17.4199 839.85 17.5586 839.744 17.7266C839.643 17.8945 839.592 18.0684 839.592 18.248C839.592 18.3887 839.613 18.5176 839.656 18.6348C839.703 18.748 839.785 18.8535 839.902 18.9512C840.023 19.0488 840.195 19.1406 840.418 19.2266C840.641 19.3125 840.93 19.3965 841.285 19.4785C841.797 19.5918 842.215 19.7305 842.539 19.8945C842.867 20.0547 843.109 20.2539 843.266 20.4922C843.422 20.7266 843.5 21.0117 843.5 21.3477C843.5 21.6094 843.445 21.8496 843.336 22.0684C843.227 22.2832 843.068 22.4688 842.861 22.625C842.658 22.7812 842.412 22.9023 842.123 22.9883C841.838 23.0742 841.518 23.1172 841.162 23.1172C840.627 23.1172 840.174 23.0293 839.803 22.8535C839.436 22.6738 839.156 22.4395 838.965 22.1504C838.777 21.8574 838.684 21.5469 838.684 21.2188H839.381C839.404 21.5469 839.508 21.8066 839.691 21.998C839.875 22.1855 840.1 22.3184 840.365 22.3965C840.635 22.4746 840.9 22.5137 841.162 22.5137C841.521 22.5137 841.822 22.4609 842.064 22.3555C842.307 22.25 842.49 22.1113 842.615 21.9395C842.74 21.7676 842.803 21.582 842.803 21.3828ZM847.484 16.6602V17.2344H844.309V16.6602H847.484ZM845.475 15.0312H846.172V21.459C846.172 21.752 846.211 21.9727 846.289 22.1211C846.367 22.2695 846.469 22.3691 846.594 22.4199C846.719 22.4707 846.854 22.4961 846.998 22.4961C847.104 22.4961 847.205 22.4902 847.303 22.4785C847.4 22.4629 847.488 22.4473 847.566 22.4316L847.596 23.0234C847.51 23.0508 847.398 23.0723 847.262 23.0879C847.125 23.1074 846.988 23.1172 846.852 23.1172C846.582 23.1172 846.344 23.0684 846.137 22.9707C845.93 22.8691 845.768 22.6973 845.65 22.4551C845.533 22.209 845.475 21.875 845.475 21.4531V15.0312ZM848.451 19.9297V19.7363C848.451 19.2754 848.518 18.8496 848.65 18.459C848.783 18.0684 848.973 17.7305 849.219 17.4453C849.469 17.1602 849.768 16.9395 850.115 16.7832C850.463 16.623 850.85 16.543 851.275 16.543C851.705 16.543 852.094 16.623 852.441 16.7832C852.789 16.9395 853.088 17.1602 853.338 17.4453C853.588 17.7305 853.779 18.0684 853.912 18.459C854.045 18.8496 854.111 19.2754 854.111 19.7363V19.9297C854.111 20.3906 854.045 20.8164 853.912 21.207C853.779 21.5938 853.588 21.9297 853.338 22.2148C853.092 22.5 852.795 22.7227 852.447 22.8828C852.1 23.0391 851.713 23.1172 851.287 23.1172C850.857 23.1172 850.469 23.0391 850.121 22.8828C849.773 22.7227 849.475 22.5 849.225 22.2148C848.975 21.9297 848.783 21.5938 848.65 21.207C848.518 20.8164 848.451 20.3906 848.451 19.9297ZM849.148 19.7363V19.9297C849.148 20.2773 849.195 20.6074 849.289 20.9199C849.383 21.2285 849.52 21.5039 849.699 21.7461C849.879 21.9844 850.102 22.1719 850.367 22.3086C850.633 22.4453 850.939 22.5137 851.287 22.5137C851.631 22.5137 851.934 22.4453 852.195 22.3086C852.461 22.1719 852.684 21.9844 852.863 21.7461C853.043 21.5039 853.178 21.2285 853.268 20.9199C853.361 20.6074 853.408 20.2773 853.408 19.9297V19.7363C853.408 19.3926 853.361 19.0664 853.268 18.7578C853.178 18.4492 853.041 18.1738 852.857 17.9316C852.678 17.6895 852.455 17.498 852.189 17.3574C851.924 17.2168 851.619 17.1465 851.275 17.1465C850.932 17.1465 850.627 17.2168 850.361 17.3574C850.1 17.498 849.877 17.6895 849.693 17.9316C849.514 18.1738 849.377 18.4492 849.283 18.7578C849.193 19.0664 849.148 19.3926 849.148 19.7363ZM857.902 22.5137C858.199 22.5137 858.477 22.459 858.734 22.3496C858.996 22.2363 859.211 22.0703 859.379 21.8516C859.551 21.6289 859.648 21.3574 859.672 21.0371H860.34C860.32 21.4395 860.197 21.7988 859.971 22.1152C859.748 22.4277 859.455 22.6738 859.092 22.8535C858.732 23.0293 858.336 23.1172 857.902 23.1172C857.461 23.1172 857.07 23.0371 856.73 22.877C856.395 22.7168 856.113 22.4941 855.887 22.209C855.66 21.9199 855.488 21.584 855.371 21.2012C855.258 20.8145 855.201 20.3984 855.201 19.9531V19.707C855.201 19.2617 855.258 18.8477 855.371 18.4648C855.488 18.0781 855.66 17.7422 855.887 17.457C856.113 17.168 856.395 16.9434 856.73 16.7832C857.066 16.623 857.455 16.543 857.896 16.543C858.35 16.543 858.756 16.6348 859.115 16.8184C859.479 17.002 859.768 17.2617 859.982 17.5977C860.201 17.9336 860.32 18.332 860.34 18.793H859.672C859.652 18.4531 859.562 18.1602 859.402 17.9141C859.242 17.668 859.031 17.4785 858.77 17.3457C858.508 17.2129 858.217 17.1465 857.896 17.1465C857.537 17.1465 857.23 17.2168 856.977 17.3574C856.723 17.4941 856.516 17.6836 856.355 17.9258C856.199 18.1641 856.084 18.4375 856.01 18.7461C855.936 19.0508 855.898 19.3711 855.898 19.707V19.9531C855.898 20.293 855.934 20.6172 856.004 20.9258C856.078 21.2305 856.193 21.502 856.35 21.7402C856.51 21.9785 856.717 22.168 856.971 22.3086C857.229 22.4453 857.539 22.5137 857.902 22.5137ZM862.449 14V23H861.752V14H862.449ZM866.428 16.6602L863.463 19.6016L862.203 20.8203L862.098 20.1348L863.111 19.0391L865.543 16.6602H866.428ZM865.818 23L863.17 19.707L863.557 19.1035L866.662 23H865.818ZM871.256 17.8789V25.4375H870.553V16.6602H871.209L871.256 17.8789ZM875.662 19.7715V19.8945C875.662 20.3672 875.607 20.8008 875.498 21.1953C875.389 21.5898 875.23 21.9316 875.023 22.2207C874.82 22.5059 874.568 22.7266 874.268 22.8828C873.967 23.0391 873.625 23.1172 873.242 23.1172C872.863 23.1172 872.525 23.0586 872.229 22.9414C871.932 22.8242 871.676 22.6582 871.461 22.4434C871.25 22.2246 871.08 21.9707 870.951 21.6816C870.826 21.3887 870.738 21.0684 870.688 20.7207V19.0977C870.746 18.7148 870.842 18.3672 870.975 18.0547C871.107 17.7422 871.277 17.4727 871.484 17.2461C871.695 17.0195 871.945 16.8457 872.234 16.7246C872.523 16.6035 872.854 16.543 873.225 16.543C873.611 16.543 873.955 16.6191 874.256 16.7715C874.561 16.9199 874.816 17.1367 875.023 17.4219C875.234 17.7031 875.393 18.043 875.498 18.4414C875.607 18.8359 875.662 19.2793 875.662 19.7715ZM874.959 19.8945V19.7715C874.959 19.4004 874.92 19.0566 874.842 18.7402C874.768 18.4238 874.652 18.1484 874.496 17.9141C874.344 17.6758 874.148 17.4902 873.91 17.3574C873.676 17.2246 873.396 17.1582 873.072 17.1582C872.736 17.1582 872.449 17.2148 872.211 17.3281C871.977 17.4375 871.781 17.584 871.625 17.7676C871.469 17.9473 871.346 18.1445 871.256 18.3594C871.166 18.5742 871.1 18.7852 871.057 18.9922V20.8613C871.131 21.1582 871.25 21.4336 871.414 21.6875C871.578 21.9375 871.797 22.1387 872.07 22.291C872.348 22.4395 872.686 22.5137 873.084 22.5137C873.404 22.5137 873.682 22.4473 873.916 22.3145C874.15 22.1816 874.344 21.9961 874.496 21.7578C874.652 21.5195 874.768 21.2422 874.842 20.9258C874.92 20.6094 874.959 20.2656 874.959 19.8945ZM878 16.6602V23H877.303V16.6602H878ZM877.18 14.8262C877.18 14.6934 877.221 14.582 877.303 14.4922C877.389 14.3984 877.506 14.3516 877.654 14.3516C877.803 14.3516 877.92 14.3984 878.006 14.4922C878.096 14.582 878.141 14.6934 878.141 14.8262C878.141 14.9551 878.096 15.0664 878.006 15.1602C877.92 15.25 877.803 15.2949 877.654 15.2949C877.506 15.2949 877.389 15.25 877.303 15.1602C877.221 15.0664 877.18 14.9551 877.18 14.8262ZM882.365 23.1172C881.951 23.1172 881.57 23.041 881.223 22.8887C880.879 22.7363 880.578 22.5215 880.32 22.2441C880.066 21.9668 879.869 21.6387 879.729 21.2598C879.592 20.877 879.523 20.459 879.523 20.0059V19.7539C879.523 19.2656 879.596 18.8242 879.74 18.4297C879.885 18.0352 880.084 17.6973 880.338 17.416C880.592 17.1348 880.881 16.9199 881.205 16.7715C881.533 16.6191 881.877 16.543 882.236 16.543C882.639 16.543 882.996 16.6152 883.309 16.7598C883.621 16.9004 883.883 17.1016 884.094 17.3633C884.309 17.6211 884.471 17.9277 884.58 18.2832C884.689 18.6348 884.744 19.0234 884.744 19.4492V19.877H879.945V19.2793H884.047V19.1973C884.039 18.8418 883.967 18.5098 883.83 18.2012C883.697 17.8887 883.498 17.6348 883.232 17.4395C882.967 17.2441 882.635 17.1465 882.236 17.1465C881.939 17.1465 881.666 17.209 881.416 17.334C881.17 17.459 880.957 17.6387 880.777 17.873C880.602 18.1035 880.465 18.3789 880.367 18.6992C880.273 19.0156 880.227 19.3672 880.227 19.7539V20.0059C880.227 20.3574 880.277 20.6855 880.379 20.9902C880.484 21.291 880.633 21.5566 880.824 21.7871C881.02 22.0176 881.25 22.1973 881.516 22.3262C881.781 22.4551 882.074 22.5195 882.395 22.5195C882.77 22.5195 883.102 22.4512 883.391 22.3145C883.68 22.1738 883.939 21.9531 884.17 21.6523L884.609 21.9922C884.473 22.1953 884.301 22.3828 884.094 22.5547C883.891 22.7266 883.646 22.8633 883.361 22.9648C883.076 23.0664 882.744 23.1172 882.365 23.1172ZM888.465 22.5137C888.762 22.5137 889.039 22.459 889.297 22.3496C889.559 22.2363 889.773 22.0703 889.941 21.8516C890.113 21.6289 890.211 21.3574 890.234 21.0371H890.902C890.883 21.4395 890.76 21.7988 890.533 22.1152C890.311 22.4277 890.018 22.6738 889.654 22.8535C889.295 23.0293 888.898 23.1172 888.465 23.1172C888.023 23.1172 887.633 23.0371 887.293 22.877C886.957 22.7168 886.676 22.4941 886.449 22.209C886.223 21.9199 886.051 21.584 885.934 21.2012C885.82 20.8145 885.764 20.3984 885.764 19.9531V19.707C885.764 19.2617 885.82 18.8477 885.934 18.4648C886.051 18.0781 886.223 17.7422 886.449 17.457C886.676 17.168 886.957 16.9434 887.293 16.7832C887.629 16.623 888.018 16.543 888.459 16.543C888.912 16.543 889.318 16.6348 889.678 16.8184C890.041 17.002 890.33 17.2617 890.545 17.5977C890.764 17.9336 890.883 18.332 890.902 18.793H890.234C890.215 18.4531 890.125 18.1602 889.965 17.9141C889.805 17.668 889.594 17.4785 889.332 17.3457C889.07 17.2129 888.779 17.1465 888.459 17.1465C888.1 17.1465 887.793 17.2168 887.539 17.3574C887.285 17.4941 887.078 17.6836 886.918 17.9258C886.762 18.1641 886.646 18.4375 886.572 18.7461C886.498 19.0508 886.461 19.3711 886.461 19.707V19.9531C886.461 20.293 886.496 20.6172 886.566 20.9258C886.641 21.2305 886.756 21.502 886.912 21.7402C887.072 21.9785 887.279 22.168 887.533 22.3086C887.791 22.4453 888.102 22.5137 888.465 22.5137ZM894.764 23.1172C894.35 23.1172 893.969 23.041 893.621 22.8887C893.277 22.7363 892.977 22.5215 892.719 22.2441C892.465 21.9668 892.268 21.6387 892.127 21.2598C891.99 20.877 891.922 20.459 891.922 20.0059V19.7539C891.922 19.2656 891.994 18.8242 892.139 18.4297C892.283 18.0352 892.482 17.6973 892.736 17.416C892.99 17.1348 893.279 16.9199 893.604 16.7715C893.932 16.6191 894.275 16.543 894.635 16.543C895.037 16.543 895.395 16.6152 895.707 16.7598C896.02 16.9004 896.281 17.1016 896.492 17.3633C896.707 17.6211 896.869 17.9277 896.979 18.2832C897.088 18.6348 897.143 19.0234 897.143 19.4492V19.877H892.344V19.2793H896.445V19.1973C896.438 18.8418 896.365 18.5098 896.229 18.2012C896.096 17.8887 895.896 17.6348 895.631 17.4395C895.365 17.2441 895.033 17.1465 894.635 17.1465C894.338 17.1465 894.064 17.209 893.814 17.334C893.568 17.459 893.355 17.6387 893.176 17.873C893 18.1035 892.863 18.3789 892.766 18.6992C892.672 19.0156 892.625 19.3672 892.625 19.7539V20.0059C892.625 20.3574 892.676 20.6855 892.777 20.9902C892.883 21.291 893.031 21.5566 893.223 21.7871C893.418 22.0176 893.648 22.1973 893.914 22.3262C894.18 22.4551 894.473 22.5195 894.793 22.5195C895.168 22.5195 895.5 22.4512 895.789 22.3145C896.078 22.1738 896.338 21.9531 896.568 21.6523L897.008 21.9922C896.871 22.1953 896.699 22.3828 896.492 22.5547C896.289 22.7266 896.045 22.8633 895.76 22.9648C895.475 23.0664 895.143 23.1172 894.764 23.1172ZM902.322 21.3828C902.322 21.2109 902.279 21.041 902.193 20.873C902.107 20.7051 901.941 20.5508 901.695 20.4102C901.453 20.2695 901.096 20.1504 900.623 20.0527C900.271 19.9746 899.957 19.8867 899.68 19.7891C899.406 19.6914 899.176 19.5742 898.988 19.4375C898.801 19.3008 898.658 19.1367 898.561 18.9453C898.463 18.7539 898.414 18.5273 898.414 18.2656C898.414 18.0312 898.465 17.8105 898.566 17.6035C898.672 17.3926 898.82 17.209 899.012 17.0527C899.207 16.8926 899.441 16.7676 899.715 16.6777C899.992 16.5879 900.303 16.543 900.646 16.543C901.135 16.543 901.553 16.627 901.9 16.7949C902.252 16.959 902.52 17.1836 902.703 17.4688C902.891 17.7539 902.984 18.0762 902.984 18.4355H902.287C902.287 18.2168 902.223 18.0098 902.094 17.8145C901.969 17.6191 901.783 17.459 901.537 17.334C901.295 17.209 900.998 17.1465 900.646 17.1465C900.283 17.1465 899.988 17.2012 899.762 17.3105C899.535 17.4199 899.369 17.5586 899.264 17.7266C899.162 17.8945 899.111 18.0684 899.111 18.248C899.111 18.3887 899.133 18.5176 899.176 18.6348C899.223 18.748 899.305 18.8535 899.422 18.9512C899.543 19.0488 899.715 19.1406 899.938 19.2266C900.16 19.3125 900.449 19.3965 900.805 19.4785C901.316 19.5918 901.734 19.7305 902.059 19.8945C902.387 20.0547 902.629 20.2539 902.785 20.4922C902.941 20.7266 903.02 21.0117 903.02 21.3477C903.02 21.6094 902.965 21.8496 902.855 22.0684C902.746 22.2832 902.588 22.4688 902.381 22.625C902.178 22.7812 901.932 22.9023 901.643 22.9883C901.357 23.0742 901.037 23.1172 900.682 23.1172C900.146 23.1172 899.693 23.0293 899.322 22.8535C898.955 22.6738 898.676 22.4395 898.484 22.1504C898.297 21.8574 898.203 21.5469 898.203 21.2188H898.9C898.924 21.5469 899.027 21.8066 899.211 21.998C899.395 22.1855 899.619 22.3184 899.885 22.3965C900.154 22.4746 900.42 22.5137 900.682 22.5137C901.041 22.5137 901.342 22.4609 901.584 22.3555C901.826 22.25 902.01 22.1113 902.135 21.9395C902.26 21.7676 902.322 21.582 902.322 21.3828ZM909.295 21.5176L910.824 16.6602H911.316L911.023 17.9668L909.424 23H908.932L909.295 21.5176ZM907.707 16.6602L909.049 21.5469L909.336 23H908.826L906.986 16.6602H907.707ZM913.221 21.5293L914.527 16.6602H915.248L913.408 23H912.904L913.221 21.5293ZM911.416 16.6602L912.922 21.4766L913.303 23H912.811L911.176 17.9609L910.9 16.6602H911.416ZM917.375 16.6602V23H916.678V16.6602H917.375ZM916.555 14.8262C916.555 14.6934 916.596 14.582 916.678 14.4922C916.764 14.3984 916.881 14.3516 917.029 14.3516C917.178 14.3516 917.295 14.3984 917.381 14.4922C917.471 14.582 917.516 14.6934 917.516 14.8262C917.516 14.9551 917.471 15.0664 917.381 15.1602C917.295 15.25 917.178 15.2949 917.029 15.2949C916.881 15.2949 916.764 15.25 916.678 15.1602C916.596 15.0664 916.555 14.9551 916.555 14.8262ZM920.07 14V23H919.373V14H920.07ZM922.766 14V23H922.068V14H922.766ZM931.408 21.3828C931.408 21.2109 931.365 21.041 931.279 20.873C931.193 20.7051 931.027 20.5508 930.781 20.4102C930.539 20.2695 930.182 20.1504 929.709 20.0527C929.357 19.9746 929.043 19.8867 928.766 19.7891C928.492 19.6914 928.262 19.5742 928.074 19.4375C927.887 19.3008 927.744 19.1367 927.646 18.9453C927.549 18.7539 927.5 18.5273 927.5 18.2656C927.5 18.0312 927.551 17.8105 927.652 17.6035C927.758 17.3926 927.906 17.209 928.098 17.0527C928.293 16.8926 928.527 16.7676 928.801 16.6777C929.078 16.5879 929.389 16.543 929.732 16.543C930.221 16.543 930.639 16.627 930.986 16.7949C931.338 16.959 931.605 17.1836 931.789 17.4688C931.977 17.7539 932.07 18.0762 932.07 18.4355H931.373C931.373 18.2168 931.309 18.0098 931.18 17.8145C931.055 17.6191 930.869 17.459 930.623 17.334C930.381 17.209 930.084 17.1465 929.732 17.1465C929.369 17.1465 929.074 17.2012 928.848 17.3105C928.621 17.4199 928.455 17.5586 928.35 17.7266C928.248 17.8945 928.197 18.0684 928.197 18.248C928.197 18.3887 928.219 18.5176 928.262 18.6348C928.309 18.748 928.391 18.8535 928.508 18.9512C928.629 19.0488 928.801 19.1406 929.023 19.2266C929.246 19.3125 929.535 19.3965 929.891 19.4785C930.402 19.5918 930.82 19.7305 931.145 19.8945C931.473 20.0547 931.715 20.2539 931.871 20.4922C932.027 20.7266 932.105 21.0117 932.105 21.3477C932.105 21.6094 932.051 21.8496 931.941 22.0684C931.832 22.2832 931.674 22.4688 931.467 22.625C931.264 22.7812 931.018 22.9023 930.729 22.9883C930.443 23.0742 930.123 23.1172 929.768 23.1172C929.232 23.1172 928.779 23.0293 928.408 22.8535C928.041 22.6738 927.762 22.4395 927.57 22.1504C927.383 21.8574 927.289 21.5469 927.289 21.2188H927.986C928.01 21.5469 928.113 21.8066 928.297 21.998C928.48 22.1855 928.705 22.3184 928.971 22.3965C929.24 22.4746 929.506 22.5137 929.768 22.5137C930.127 22.5137 930.428 22.4609 930.67 22.3555C930.912 22.25 931.096 22.1113 931.221 21.9395C931.346 21.7676 931.408 21.582 931.408 21.3828ZM934.391 14V23H933.693V14H934.391ZM934.232 19.4375L933.922 19.2617C933.945 18.8867 934.021 18.5352 934.15 18.207C934.279 17.8789 934.453 17.5898 934.672 17.3398C934.895 17.0898 935.154 16.8945 935.451 16.7539C935.752 16.6133 936.084 16.543 936.447 16.543C936.764 16.543 937.047 16.5859 937.297 16.6719C937.547 16.7578 937.76 16.8945 937.936 17.082C938.111 17.2695 938.244 17.5098 938.334 17.8027C938.428 18.0957 938.475 18.4531 938.475 18.875V23H937.771V18.8691C937.771 18.4316 937.711 18.0898 937.59 17.8438C937.469 17.5938 937.297 17.416 937.074 17.3105C936.852 17.2051 936.588 17.1523 936.283 17.1523C935.947 17.1523 935.652 17.2266 935.398 17.375C935.148 17.5195 934.938 17.709 934.766 17.9434C934.598 18.1738 934.469 18.4219 934.379 18.6875C934.289 18.9492 934.24 19.1992 934.232 19.4375ZM941.059 16.6602V23H940.361V16.6602H941.059ZM940.238 14.8262C940.238 14.6934 940.279 14.582 940.361 14.4922C940.447 14.3984 940.564 14.3516 940.713 14.3516C940.861 14.3516 940.979 14.3984 941.064 14.4922C941.154 14.582 941.199 14.6934 941.199 14.8262C941.199 14.9551 941.154 15.0664 941.064 15.1602C940.979 15.25 940.861 15.2949 940.713 15.2949C940.564 15.2949 940.447 15.25 940.361 15.1602C940.279 15.0664 940.238 14.9551 940.238 14.8262ZM943.666 17.8789V25.4375H942.963V16.6602H943.619L943.666 17.8789ZM948.072 19.7715V19.8945C948.072 20.3672 948.018 20.8008 947.908 21.1953C947.799 21.5898 947.641 21.9316 947.434 22.2207C947.23 22.5059 946.979 22.7266 946.678 22.8828C946.377 23.0391 946.035 23.1172 945.652 23.1172C945.273 23.1172 944.936 23.0586 944.639 22.9414C944.342 22.8242 944.086 22.6582 943.871 22.4434C943.66 22.2246 943.49 21.9707 943.361 21.6816C943.236 21.3887 943.148 21.0684 943.098 20.7207V19.0977C943.156 18.7148 943.252 18.3672 943.385 18.0547C943.518 17.7422 943.688 17.4727 943.895 17.2461C944.105 17.0195 944.355 16.8457 944.645 16.7246C944.934 16.6035 945.264 16.543 945.635 16.543C946.021 16.543 946.365 16.6191 946.666 16.7715C946.971 16.9199 947.227 17.1367 947.434 17.4219C947.645 17.7031 947.803 18.043 947.908 18.4414C948.018 18.8359 948.072 19.2793 948.072 19.7715ZM947.369 19.8945V19.7715C947.369 19.4004 947.33 19.0566 947.252 18.7402C947.178 18.4238 947.062 18.1484 946.906 17.9141C946.754 17.6758 946.559 17.4902 946.32 17.3574C946.086 17.2246 945.807 17.1582 945.482 17.1582C945.146 17.1582 944.859 17.2148 944.621 17.3281C944.387 17.4375 944.191 17.584 944.035 17.7676C943.879 17.9473 943.756 18.1445 943.666 18.3594C943.576 18.5742 943.51 18.7852 943.467 18.9922V20.8613C943.541 21.1582 943.66 21.4336 943.824 21.6875C943.988 21.9375 944.207 22.1387 944.48 22.291C944.758 22.4395 945.096 22.5137 945.494 22.5137C945.814 22.5137 946.092 22.4473 946.326 22.3145C946.561 22.1816 946.754 21.9961 946.906 21.7578C947.062 21.5195 947.178 21.2422 947.252 20.9258C947.33 20.6094 947.369 20.2656 947.369 19.8945ZM954.318 21.5176L955.848 16.6602H956.34L956.047 17.9668L954.447 23H953.955L954.318 21.5176ZM952.73 16.6602L954.072 21.5469L954.359 23H953.85L952.01 16.6602H952.73ZM958.244 21.5293L959.551 16.6602H960.271L958.432 23H957.928L958.244 21.5293ZM956.439 16.6602L957.945 21.4766L958.326 23H957.834L956.199 17.9609L955.924 16.6602H956.439ZM962.398 16.6602V23H961.701V16.6602H962.398ZM961.578 14.8262C961.578 14.6934 961.619 14.582 961.701 14.4922C961.787 14.3984 961.904 14.3516 962.053 14.3516C962.201 14.3516 962.318 14.3984 962.404 14.4922C962.494 14.582 962.539 14.6934 962.539 14.8262C962.539 14.9551 962.494 15.0664 962.404 15.1602C962.318 15.25 962.201 15.2949 962.053 15.2949C961.904 15.2949 961.787 15.25 961.701 15.1602C961.619 15.0664 961.578 14.9551 961.578 14.8262ZM966.711 16.6602V17.2344H963.535V16.6602H966.711ZM964.701 15.0312H965.398V21.459C965.398 21.752 965.438 21.9727 965.516 22.1211C965.594 22.2695 965.695 22.3691 965.82 22.4199C965.945 22.4707 966.08 22.4961 966.225 22.4961C966.33 22.4961 966.432 22.4902 966.529 22.4785C966.627 22.4629 966.715 22.4473 966.793 22.4316L966.822 23.0234C966.736 23.0508 966.625 23.0723 966.488 23.0879C966.352 23.1074 966.215 23.1172 966.078 23.1172C965.809 23.1172 965.57 23.0684 965.363 22.9707C965.156 22.8691 964.994 22.6973 964.877 22.4551C964.76 22.209 964.701 21.875 964.701 21.4531V15.0312ZM968.879 14V23H968.182V14H968.879ZM968.721 19.4375L968.41 19.2617C968.434 18.8867 968.51 18.5352 968.639 18.207C968.768 17.8789 968.941 17.5898 969.16 17.3398C969.383 17.0898 969.643 16.8945 969.939 16.7539C970.24 16.6133 970.572 16.543 970.936 16.543C971.252 16.543 971.535 16.5859 971.785 16.6719C972.035 16.7578 972.248 16.8945 972.424 17.082C972.6 17.2695 972.732 17.5098 972.822 17.8027C972.916 18.0957 972.963 18.4531 972.963 18.875V23H972.26V18.8691C972.26 18.4316 972.199 18.0898 972.078 17.8438C971.957 17.5938 971.785 17.416 971.562 17.3105C971.34 17.2051 971.076 17.1523 970.771 17.1523C970.436 17.1523 970.141 17.2266 969.887 17.375C969.637 17.5195 969.426 17.709 969.254 17.9434C969.086 18.1738 968.957 18.4219 968.867 18.6875C968.777 18.9492 968.729 19.1992 968.721 19.4375ZM975.547 16.6602V23H974.85V16.6602H975.547ZM974.727 14.8262C974.727 14.6934 974.768 14.582 974.85 14.4922C974.936 14.3984 975.053 14.3516 975.201 14.3516C975.35 14.3516 975.467 14.3984 975.553 14.4922C975.643 14.582 975.688 14.6934 975.688 14.8262C975.688 14.9551 975.643 15.0664 975.553 15.1602C975.467 15.25 975.35 15.2949 975.201 15.2949C975.053 15.2949 974.936 15.25 974.85 15.1602C974.768 15.0664 974.727 14.9551 974.727 14.8262ZM978.16 18.0137V23H977.463V16.6602H978.131L978.16 18.0137ZM978.002 19.4375L977.691 19.2617C977.715 18.8867 977.791 18.5352 977.92 18.207C978.049 17.8789 978.223 17.5898 978.441 17.3398C978.664 17.0898 978.924 16.8945 979.221 16.7539C979.521 16.6133 979.854 16.543 980.217 16.543C980.533 16.543 980.816 16.5859 981.066 16.6719C981.316 16.7578 981.529 16.8945 981.705 17.082C981.881 17.2695 982.014 17.5098 982.104 17.8027C982.197 18.0957 982.244 18.4531 982.244 18.875V23H981.541V18.8691C981.541 18.4316 981.48 18.0898 981.359 17.8438C981.238 17.5938 981.066 17.416 980.844 17.3105C980.621 17.2051 980.357 17.1523 980.053 17.1523C979.717 17.1523 979.422 17.2266 979.168 17.375C978.918 17.5195 978.707 17.709 978.535 17.9434C978.367 18.1738 978.238 18.4219 978.148 18.6875C978.059 18.9492 978.01 19.1992 978.002 19.4375ZM990.846 21.8633V18.5938C990.846 18.293 990.783 18.0332 990.658 17.8145C990.533 17.5957 990.35 17.4277 990.107 17.3105C989.865 17.1934 989.566 17.1348 989.211 17.1348C988.883 17.1348 988.59 17.1934 988.332 17.3105C988.078 17.4238 987.877 17.5781 987.729 17.7734C987.584 17.9648 987.512 18.1777 987.512 18.4121L986.809 18.4062C986.809 18.168 986.867 17.9375 986.984 17.7148C987.102 17.4922 987.268 17.293 987.482 17.1172C987.697 16.9414 987.953 16.8027 988.25 16.7012C988.551 16.5957 988.881 16.543 989.24 16.543C989.693 16.543 990.092 16.6191 990.436 16.7715C990.783 16.9238 991.055 17.1523 991.25 17.457C991.445 17.7617 991.543 18.1445 991.543 18.6055V21.6699C991.543 21.8887 991.559 22.1152 991.59 22.3496C991.625 22.584 991.674 22.7773 991.736 22.9297V23H990.992C990.945 22.8594 990.908 22.6836 990.881 22.4727C990.857 22.2578 990.846 22.0547 990.846 21.8633ZM991.01 19.3086L991.021 19.8477H989.645C989.285 19.8477 988.963 19.8809 988.678 19.9473C988.396 20.0098 988.158 20.1035 987.963 20.2285C987.768 20.3496 987.617 20.4961 987.512 20.668C987.41 20.8398 987.359 21.0352 987.359 21.2539C987.359 21.4805 987.416 21.6875 987.529 21.875C987.646 22.0625 987.811 22.2129 988.021 22.3262C988.236 22.4355 988.49 22.4902 988.783 22.4902C989.174 22.4902 989.518 22.418 989.814 22.2734C990.115 22.1289 990.363 21.9395 990.559 21.7051C990.754 21.4707 990.885 21.2148 990.951 20.9375L991.256 21.3418C991.205 21.5371 991.111 21.7383 990.975 21.9453C990.842 22.1484 990.668 22.3398 990.453 22.5195C990.238 22.6953 989.984 22.8398 989.691 22.9531C989.402 23.0625 989.074 23.1172 988.707 23.1172C988.293 23.1172 987.932 23.0391 987.623 22.8828C987.318 22.7266 987.08 22.5137 986.908 22.2441C986.74 21.9707 986.656 21.6621 986.656 21.3184C986.656 21.0059 986.723 20.7266 986.855 20.4805C986.988 20.2305 987.18 20.0195 987.43 19.8477C987.684 19.6719 987.988 19.5391 988.344 19.4492C988.703 19.3555 989.105 19.3086 989.551 19.3086H991.01ZM994.121 18.0137V23H993.424V16.6602H994.092L994.121 18.0137ZM993.963 19.4375L993.652 19.2617C993.676 18.8867 993.752 18.5352 993.881 18.207C994.01 17.8789 994.184 17.5898 994.402 17.3398C994.625 17.0898 994.885 16.8945 995.182 16.7539C995.482 16.6133 995.814 16.543 996.178 16.543C996.494 16.543 996.777 16.5859 997.027 16.6719C997.277 16.7578 997.49 16.8945 997.666 17.082C997.842 17.2695 997.975 17.5098 998.064 17.8027C998.158 18.0957 998.205 18.4531 998.205 18.875V23H997.502V18.8691C997.502 18.4316 997.441 18.0898 997.32 17.8438C997.199 17.5938 997.027 17.416 996.805 17.3105C996.582 17.2051 996.318 17.1523 996.014 17.1523C995.678 17.1523 995.383 17.2266 995.129 17.375C994.879 17.5195 994.668 17.709 994.496 17.9434C994.328 18.1738 994.199 18.4219 994.109 18.6875C994.02 18.9492 993.971 19.1992 993.963 19.4375ZM1005.4 23.1172C1004.99 23.1172 1004.61 23.041 1004.26 22.8887C1003.91 22.7363 1003.61 22.5215 1003.36 22.2441C1003.1 21.9668 1002.9 21.6387 1002.76 21.2598C1002.63 20.877 1002.56 20.459 1002.56 20.0059V19.7539C1002.56 19.2656 1002.63 18.8242 1002.78 18.4297C1002.92 18.0352 1003.12 17.6973 1003.37 17.416C1003.63 17.1348 1003.92 16.9199 1004.24 16.7715C1004.57 16.6191 1004.91 16.543 1005.27 16.543C1005.67 16.543 1006.03 16.6152 1006.34 16.7598C1006.66 16.9004 1006.92 17.1016 1007.13 17.3633C1007.34 17.6211 1007.51 17.9277 1007.62 18.2832C1007.72 18.6348 1007.78 19.0234 1007.78 19.4492V19.877H1002.98V19.2793H1007.08V19.1973C1007.07 18.8418 1007 18.5098 1006.87 18.2012C1006.73 17.8887 1006.53 17.6348 1006.27 17.4395C1006 17.2441 1005.67 17.1465 1005.27 17.1465C1004.97 17.1465 1004.7 17.209 1004.45 17.334C1004.21 17.459 1003.99 17.6387 1003.81 17.873C1003.64 18.1035 1003.5 18.3789 1003.4 18.6992C1003.31 19.0156 1003.26 19.3672 1003.26 19.7539V20.0059C1003.26 20.3574 1003.31 20.6855 1003.41 20.9902C1003.52 21.291 1003.67 21.5566 1003.86 21.7871C1004.05 22.0176 1004.29 22.1973 1004.55 22.3262C1004.82 22.4551 1005.11 22.5195 1005.43 22.5195C1005.8 22.5195 1006.14 22.4512 1006.43 22.3145C1006.71 22.1738 1006.97 21.9531 1007.21 21.6523L1007.64 21.9922C1007.51 22.1953 1007.34 22.3828 1007.13 22.5547C1006.93 22.7266 1006.68 22.8633 1006.4 22.9648C1006.11 23.0664 1005.78 23.1172 1005.4 23.1172ZM1012.96 21.3828C1012.96 21.2109 1012.92 21.041 1012.83 20.873C1012.74 20.7051 1012.58 20.5508 1012.33 20.4102C1012.09 20.2695 1011.73 20.1504 1011.26 20.0527C1010.91 19.9746 1010.59 19.8867 1010.32 19.7891C1010.04 19.6914 1009.81 19.5742 1009.62 19.4375C1009.44 19.3008 1009.29 19.1367 1009.2 18.9453C1009.1 18.7539 1009.05 18.5273 1009.05 18.2656C1009.05 18.0312 1009.1 17.8105 1009.2 17.6035C1009.31 17.3926 1009.46 17.209 1009.65 17.0527C1009.84 16.8926 1010.08 16.7676 1010.35 16.6777C1010.63 16.5879 1010.94 16.543 1011.28 16.543C1011.77 16.543 1012.19 16.627 1012.54 16.7949C1012.89 16.959 1013.16 17.1836 1013.34 17.4688C1013.53 17.7539 1013.62 18.0762 1013.62 18.4355H1012.92C1012.92 18.2168 1012.86 18.0098 1012.73 17.8145C1012.61 17.6191 1012.42 17.459 1012.17 17.334C1011.93 17.209 1011.63 17.1465 1011.28 17.1465C1010.92 17.1465 1010.62 17.2012 1010.4 17.3105C1010.17 17.4199 1010.01 17.5586 1009.9 17.7266C1009.8 17.8945 1009.75 18.0684 1009.75 18.248C1009.75 18.3887 1009.77 18.5176 1009.81 18.6348C1009.86 18.748 1009.94 18.8535 1010.06 18.9512C1010.18 19.0488 1010.35 19.1406 1010.57 19.2266C1010.8 19.3125 1011.09 19.3965 1011.44 19.4785C1011.95 19.5918 1012.37 19.7305 1012.7 19.8945C1013.02 20.0547 1013.27 20.2539 1013.42 20.4922C1013.58 20.7266 1013.66 21.0117 1013.66 21.3477C1013.66 21.6094 1013.6 21.8496 1013.49 22.0684C1013.38 22.2832 1013.22 22.4688 1013.02 22.625C1012.81 22.7812 1012.57 22.9023 1012.28 22.9883C1011.99 23.0742 1011.67 23.1172 1011.32 23.1172C1010.78 23.1172 1010.33 23.0293 1009.96 22.8535C1009.59 22.6738 1009.31 22.4395 1009.12 22.1504C1008.93 21.8574 1008.84 21.5469 1008.84 21.2188H1009.54C1009.56 21.5469 1009.66 21.8066 1009.85 21.998C1010.03 22.1855 1010.26 22.3184 1010.52 22.3965C1010.79 22.4746 1011.06 22.5137 1011.32 22.5137C1011.68 22.5137 1011.98 22.4609 1012.22 22.3555C1012.46 22.25 1012.65 22.1113 1012.77 21.9395C1012.9 21.7676 1012.96 21.582 1012.96 21.3828ZM1017.64 16.6602V17.2344H1014.46V16.6602H1017.64ZM1015.63 15.0312H1016.33V21.459C1016.33 21.752 1016.37 21.9727 1016.45 22.1211C1016.52 22.2695 1016.62 22.3691 1016.75 22.4199C1016.88 22.4707 1017.01 22.4961 1017.15 22.4961C1017.26 22.4961 1017.36 22.4902 1017.46 22.4785C1017.56 22.4629 1017.64 22.4473 1017.72 22.4316L1017.75 23.0234C1017.67 23.0508 1017.55 23.0723 1017.42 23.0879C1017.28 23.1074 1017.14 23.1172 1017.01 23.1172C1016.74 23.1172 1016.5 23.0684 1016.29 22.9707C1016.09 22.8691 1015.92 22.6973 1015.81 22.4551C1015.69 22.209 1015.63 21.875 1015.63 21.4531V15.0312ZM1019.89 16.6602V23H1019.19V16.6602H1019.89ZM1019.07 14.8262C1019.07 14.6934 1019.11 14.582 1019.19 14.4922C1019.28 14.3984 1019.4 14.3516 1019.54 14.3516C1019.69 14.3516 1019.81 14.3984 1019.9 14.4922C1019.99 14.582 1020.03 14.6934 1020.03 14.8262C1020.03 14.9551 1019.99 15.0664 1019.9 15.1602C1019.81 15.25 1019.69 15.2949 1019.54 15.2949C1019.4 15.2949 1019.28 15.25 1019.19 15.1602C1019.11 15.0664 1019.07 14.9551 1019.07 14.8262ZM1022.47 17.9727V23H1021.77V16.6602H1022.44L1022.47 17.9727ZM1022.34 19.4375L1022 19.2617C1022.02 18.8867 1022.09 18.5352 1022.21 18.207C1022.33 17.8789 1022.5 17.5898 1022.71 17.3398C1022.93 17.0898 1023.19 16.8945 1023.49 16.7539C1023.79 16.6133 1024.13 16.543 1024.51 16.543C1024.82 16.543 1025.1 16.5859 1025.35 16.6719C1025.61 16.7539 1025.82 16.8848 1026 17.0645C1026.18 17.2402 1026.31 17.4707 1026.41 17.7559C1026.51 18.041 1026.56 18.3828 1026.56 18.7812V23H1025.86V18.8047C1025.86 18.3828 1025.79 18.0527 1025.66 17.8145C1025.53 17.5762 1025.35 17.4062 1025.12 17.3047C1024.89 17.2031 1024.62 17.1523 1024.31 17.1523C1023.96 17.1523 1023.65 17.2266 1023.4 17.375C1023.15 17.5195 1022.95 17.709 1022.8 17.9434C1022.64 18.1738 1022.53 18.4219 1022.46 18.6875C1022.38 18.9492 1022.34 19.1992 1022.34 19.4375ZM1026.55 18.8867L1026.08 18.8984C1026.1 18.5898 1026.17 18.2949 1026.29 18.0137C1026.42 17.7324 1026.59 17.4824 1026.8 17.2637C1027.02 17.041 1027.28 16.8652 1027.57 16.7363C1027.87 16.6074 1028.21 16.543 1028.59 16.543C1028.91 16.543 1029.21 16.5879 1029.46 16.6777C1029.72 16.7637 1029.94 16.9023 1030.12 17.0938C1030.29 17.2812 1030.43 17.5215 1030.53 17.8145C1030.62 18.1074 1030.67 18.459 1030.67 18.8691V23H1029.96V18.8633C1029.96 18.4141 1029.9 18.0664 1029.76 17.8203C1029.63 17.5703 1029.46 17.3965 1029.22 17.2988C1028.99 17.2012 1028.72 17.1523 1028.42 17.1523C1028.11 17.1562 1027.84 17.2129 1027.61 17.3223C1027.38 17.4277 1027.19 17.5684 1027.03 17.7441C1026.88 17.916 1026.76 18.1016 1026.68 18.3008C1026.6 18.5 1026.56 18.6953 1026.55 18.8867ZM1036.3 21.8633V18.5938C1036.3 18.293 1036.24 18.0332 1036.12 17.8145C1035.99 17.5957 1035.81 17.4277 1035.56 17.3105C1035.32 17.1934 1035.02 17.1348 1034.67 17.1348C1034.34 17.1348 1034.05 17.1934 1033.79 17.3105C1033.54 17.4238 1033.33 17.5781 1033.19 17.7734C1033.04 17.9648 1032.97 18.1777 1032.97 18.4121L1032.27 18.4062C1032.27 18.168 1032.32 17.9375 1032.44 17.7148C1032.56 17.4922 1032.72 17.293 1032.94 17.1172C1033.15 16.9414 1033.41 16.8027 1033.71 16.7012C1034.01 16.5957 1034.34 16.543 1034.7 16.543C1035.15 16.543 1035.55 16.6191 1035.89 16.7715C1036.24 16.9238 1036.51 17.1523 1036.71 17.457C1036.9 17.7617 1037 18.1445 1037 18.6055V21.6699C1037 21.8887 1037.02 22.1152 1037.05 22.3496C1037.08 22.584 1037.13 22.7773 1037.19 22.9297V23H1036.45C1036.4 22.8594 1036.37 22.6836 1036.34 22.4727C1036.31 22.2578 1036.3 22.0547 1036.3 21.8633ZM1036.47 19.3086L1036.48 19.8477H1035.1C1034.74 19.8477 1034.42 19.8809 1034.13 19.9473C1033.85 20.0098 1033.62 20.1035 1033.42 20.2285C1033.22 20.3496 1033.07 20.4961 1032.97 20.668C1032.87 20.8398 1032.82 21.0352 1032.82 21.2539C1032.82 21.4805 1032.87 21.6875 1032.99 21.875C1033.1 22.0625 1033.27 22.2129 1033.48 22.3262C1033.69 22.4355 1033.95 22.4902 1034.24 22.4902C1034.63 22.4902 1034.97 22.418 1035.27 22.2734C1035.57 22.1289 1035.82 21.9395 1036.02 21.7051C1036.21 21.4707 1036.34 21.2148 1036.41 20.9375L1036.71 21.3418C1036.66 21.5371 1036.57 21.7383 1036.43 21.9453C1036.3 22.1484 1036.12 22.3398 1035.91 22.5195C1035.7 22.6953 1035.44 22.8398 1035.15 22.9531C1034.86 23.0625 1034.53 23.1172 1034.16 23.1172C1033.75 23.1172 1033.39 23.0391 1033.08 22.8828C1032.78 22.7266 1032.54 22.5137 1032.37 22.2441C1032.2 21.9707 1032.11 21.6621 1032.11 21.3184C1032.11 21.0059 1032.18 20.7266 1032.31 20.4805C1032.45 20.2305 1032.64 20.0195 1032.89 19.8477C1033.14 19.6719 1033.45 19.5391 1033.8 19.4492C1034.16 19.3555 1034.56 19.3086 1035.01 19.3086H1036.47ZM1041.28 16.6602V17.2344H1038.1V16.6602H1041.28ZM1039.27 15.0312H1039.96V21.459C1039.96 21.752 1040 21.9727 1040.08 22.1211C1040.16 22.2695 1040.26 22.3691 1040.39 22.4199C1040.51 22.4707 1040.65 22.4961 1040.79 22.4961C1040.9 22.4961 1041 22.4902 1041.1 22.4785C1041.19 22.4629 1041.28 22.4473 1041.36 22.4316L1041.39 23.0234C1041.3 23.0508 1041.19 23.0723 1041.05 23.0879C1040.92 23.1074 1040.78 23.1172 1040.64 23.1172C1040.38 23.1172 1040.14 23.0684 1039.93 22.9707C1039.72 22.8691 1039.56 22.6973 1039.44 22.4551C1039.33 22.209 1039.27 21.875 1039.27 21.4531V15.0312ZM1045.2 23.1172C1044.78 23.1172 1044.4 23.041 1044.05 22.8887C1043.71 22.7363 1043.41 22.5215 1043.15 22.2441C1042.9 21.9668 1042.7 21.6387 1042.56 21.2598C1042.42 20.877 1042.36 20.459 1042.36 20.0059V19.7539C1042.36 19.2656 1042.43 18.8242 1042.57 18.4297C1042.72 18.0352 1042.92 17.6973 1043.17 17.416C1043.42 17.1348 1043.71 16.9199 1044.04 16.7715C1044.37 16.6191 1044.71 16.543 1045.07 16.543C1045.47 16.543 1045.83 16.6152 1046.14 16.7598C1046.45 16.9004 1046.71 17.1016 1046.93 17.3633C1047.14 17.6211 1047.3 17.9277 1047.41 18.2832C1047.52 18.6348 1047.58 19.0234 1047.58 19.4492V19.877H1042.78V19.2793H1046.88V19.1973C1046.87 18.8418 1046.8 18.5098 1046.66 18.2012C1046.53 17.8887 1046.33 17.6348 1046.06 17.4395C1045.8 17.2441 1045.47 17.1465 1045.07 17.1465C1044.77 17.1465 1044.5 17.209 1044.25 17.334C1044 17.459 1043.79 17.6387 1043.61 17.873C1043.43 18.1035 1043.3 18.3789 1043.2 18.6992C1043.11 19.0156 1043.06 19.3672 1043.06 19.7539V20.0059C1043.06 20.3574 1043.11 20.6855 1043.21 20.9902C1043.32 21.291 1043.46 21.5566 1043.66 21.7871C1043.85 22.0176 1044.08 22.1973 1044.35 22.3262C1044.61 22.4551 1044.91 22.5195 1045.23 22.5195C1045.6 22.5195 1045.93 22.4512 1046.22 22.3145C1046.51 22.1738 1046.77 21.9531 1047 21.6523L1047.44 21.9922C1047.3 22.1953 1047.13 22.3828 1046.93 22.5547C1046.72 22.7266 1046.48 22.8633 1046.19 22.9648C1045.91 23.0664 1045.58 23.1172 1045.2 23.1172ZM1053.08 21.7695V14H1053.78V23H1053.12L1053.08 21.7695ZM1048.68 19.8945V19.7715C1048.68 19.2793 1048.73 18.8359 1048.85 18.4414C1048.96 18.043 1049.12 17.7031 1049.33 17.4219C1049.55 17.1367 1049.81 16.9199 1050.11 16.7715C1050.41 16.6191 1050.75 16.543 1051.13 16.543C1051.5 16.543 1051.83 16.6035 1052.11 16.7246C1052.4 16.8457 1052.64 17.0195 1052.84 17.2461C1053.05 17.4727 1053.22 17.7422 1053.34 18.0547C1053.47 18.3672 1053.56 18.7148 1053.62 19.0977V20.6621C1053.58 21.0215 1053.49 21.3516 1053.37 21.6523C1053.24 21.9492 1053.07 22.209 1052.87 22.4316C1052.66 22.6504 1052.41 22.8203 1052.12 22.9414C1051.83 23.0586 1051.49 23.1172 1051.12 23.1172C1050.74 23.1172 1050.4 23.0391 1050.1 22.8828C1049.8 22.7266 1049.54 22.5059 1049.33 22.2207C1049.12 21.9316 1048.96 21.5898 1048.85 21.1953C1048.73 20.8008 1048.68 20.3672 1048.68 19.8945ZM1049.38 19.7715V19.8945C1049.38 20.2656 1049.42 20.6094 1049.49 20.9258C1049.57 21.2422 1049.68 21.5176 1049.83 21.752C1049.98 21.9863 1050.18 22.1699 1050.41 22.3027C1050.65 22.4355 1050.92 22.502 1051.24 22.502C1051.65 22.502 1051.98 22.4258 1052.26 22.2734C1052.53 22.1172 1052.75 21.9121 1052.91 21.6582C1053.08 21.4004 1053.2 21.1191 1053.27 20.8145V18.9922C1053.22 18.7852 1053.16 18.5742 1053.07 18.3594C1052.98 18.1445 1052.85 17.9473 1052.7 17.7676C1052.54 17.584 1052.35 17.4375 1052.11 17.3281C1051.88 17.2148 1051.59 17.1582 1051.26 17.1582C1050.93 17.1582 1050.65 17.2246 1050.42 17.3574C1050.18 17.4902 1049.99 17.6758 1049.83 17.9141C1049.68 18.1484 1049.57 18.4238 1049.49 18.7402C1049.42 19.0566 1049.38 19.4004 1049.38 19.7715ZM1060.95 16.6602V17.2344H1057.78V16.6602H1060.95ZM1058.94 15.0312H1059.64V21.459C1059.64 21.752 1059.68 21.9727 1059.76 22.1211C1059.84 22.2695 1059.94 22.3691 1060.06 22.4199C1060.19 22.4707 1060.32 22.4961 1060.47 22.4961C1060.57 22.4961 1060.67 22.4902 1060.77 22.4785C1060.87 22.4629 1060.96 22.4473 1061.04 22.4316L1061.06 23.0234C1060.98 23.0508 1060.87 23.0723 1060.73 23.0879C1060.59 23.1074 1060.46 23.1172 1060.32 23.1172C1060.05 23.1172 1059.81 23.0684 1059.61 22.9707C1059.4 22.8691 1059.24 22.6973 1059.12 22.4551C1059 22.209 1058.94 21.875 1058.94 21.4531V15.0312ZM1064.18 21.5176L1065.71 16.6602H1066.2L1065.91 17.9668L1064.31 23H1063.82L1064.18 21.5176ZM1062.59 16.6602L1063.94 21.5469L1064.22 23H1063.71L1061.87 16.6602H1062.59ZM1068.11 21.5293L1069.41 16.6602H1070.13L1068.29 23H1067.79L1068.11 21.5293ZM1066.3 16.6602L1067.81 21.4766L1068.19 23H1067.7L1066.06 17.9609L1065.79 16.6602H1066.3ZM1071.1 19.9297V19.7363C1071.1 19.2754 1071.16 18.8496 1071.29 18.459C1071.43 18.0684 1071.62 17.7305 1071.86 17.4453C1072.11 17.1602 1072.41 16.9395 1072.76 16.7832C1073.11 16.623 1073.49 16.543 1073.92 16.543C1074.35 16.543 1074.74 16.623 1075.09 16.7832C1075.43 16.9395 1075.73 17.1602 1075.98 17.4453C1076.23 17.7305 1076.42 18.0684 1076.56 18.459C1076.69 18.8496 1076.76 19.2754 1076.76 19.7363V19.9297C1076.76 20.3906 1076.69 20.8164 1076.56 21.207C1076.42 21.5938 1076.23 21.9297 1075.98 22.2148C1075.74 22.5 1075.44 22.7227 1075.09 22.8828C1074.74 23.0391 1074.36 23.1172 1073.93 23.1172C1073.5 23.1172 1073.11 23.0391 1072.77 22.8828C1072.42 22.7227 1072.12 22.5 1071.87 22.2148C1071.62 21.9297 1071.43 21.5938 1071.29 21.207C1071.16 20.8164 1071.1 20.3906 1071.1 19.9297ZM1071.79 19.7363V19.9297C1071.79 20.2773 1071.84 20.6074 1071.93 20.9199C1072.03 21.2285 1072.16 21.5039 1072.34 21.7461C1072.52 21.9844 1072.75 22.1719 1073.01 22.3086C1073.28 22.4453 1073.58 22.5137 1073.93 22.5137C1074.28 22.5137 1074.58 22.4453 1074.84 22.3086C1075.11 22.1719 1075.33 21.9844 1075.51 21.7461C1075.69 21.5039 1075.82 21.2285 1075.91 20.9199C1076.01 20.6074 1076.05 20.2773 1076.05 19.9297V19.7363C1076.05 19.3926 1076.01 19.0664 1075.91 18.7578C1075.82 18.4492 1075.69 18.1738 1075.5 17.9316C1075.32 17.6895 1075.1 17.498 1074.83 17.3574C1074.57 17.2168 1074.26 17.1465 1073.92 17.1465C1073.58 17.1465 1073.27 17.2168 1073.01 17.3574C1072.74 17.498 1072.52 17.6895 1072.34 17.9316C1072.16 18.1738 1072.02 18.4492 1071.93 18.7578C1071.84 19.0664 1071.79 19.3926 1071.79 19.7363ZM1082.9 21.5176L1084.43 16.6602H1084.92L1084.62 17.9668L1083.03 23H1082.53L1082.9 21.5176ZM1081.31 16.6602L1082.65 21.5469L1082.94 23H1082.43L1080.59 16.6602H1081.31ZM1086.82 21.5293L1088.13 16.6602H1088.85L1087.01 23H1086.51L1086.82 21.5293ZM1085.02 16.6602L1086.52 21.4766L1086.9 23H1086.41L1084.78 17.9609L1084.5 16.6602H1085.02ZM1092.65 23.1172C1092.23 23.1172 1091.85 23.041 1091.5 22.8887C1091.16 22.7363 1090.86 22.5215 1090.6 22.2441C1090.35 21.9668 1090.15 21.6387 1090.01 21.2598C1089.87 20.877 1089.8 20.459 1089.8 20.0059V19.7539C1089.8 19.2656 1089.88 18.8242 1090.02 18.4297C1090.17 18.0352 1090.37 17.6973 1090.62 17.416C1090.87 17.1348 1091.16 16.9199 1091.49 16.7715C1091.81 16.6191 1092.16 16.543 1092.52 16.543C1092.92 16.543 1093.28 16.6152 1093.59 16.7598C1093.9 16.9004 1094.16 17.1016 1094.38 17.3633C1094.59 17.6211 1094.75 17.9277 1094.86 18.2832C1094.97 18.6348 1095.03 19.0234 1095.03 19.4492V19.877H1090.23V19.2793H1094.33V19.1973C1094.32 18.8418 1094.25 18.5098 1094.11 18.2012C1093.98 17.8887 1093.78 17.6348 1093.51 17.4395C1093.25 17.2441 1092.92 17.1465 1092.52 17.1465C1092.22 17.1465 1091.95 17.209 1091.7 17.334C1091.45 17.459 1091.24 17.6387 1091.06 17.873C1090.88 18.1035 1090.75 18.3789 1090.65 18.6992C1090.55 19.0156 1090.51 19.3672 1090.51 19.7539V20.0059C1090.51 20.3574 1090.56 20.6855 1090.66 20.9902C1090.77 21.291 1090.91 21.5566 1091.11 21.7871C1091.3 22.0176 1091.53 22.1973 1091.8 22.3262C1092.06 22.4551 1092.36 22.5195 1092.68 22.5195C1093.05 22.5195 1093.38 22.4512 1093.67 22.3145C1093.96 22.1738 1094.22 21.9531 1094.45 21.6523L1094.89 21.9922C1094.75 22.1953 1094.58 22.3828 1094.38 22.5547C1094.17 22.7266 1093.93 22.8633 1093.64 22.9648C1093.36 23.0664 1093.03 23.1172 1092.65 23.1172ZM1098.86 23.1172C1098.44 23.1172 1098.06 23.041 1097.71 22.8887C1097.37 22.7363 1097.07 22.5215 1096.81 22.2441C1096.56 21.9668 1096.36 21.6387 1096.22 21.2598C1096.08 20.877 1096.02 20.459 1096.02 20.0059V19.7539C1096.02 19.2656 1096.09 18.8242 1096.23 18.4297C1096.38 18.0352 1096.58 17.6973 1096.83 17.416C1097.08 17.1348 1097.37 16.9199 1097.7 16.7715C1098.03 16.6191 1098.37 16.543 1098.73 16.543C1099.13 16.543 1099.49 16.6152 1099.8 16.7598C1100.11 16.9004 1100.38 17.1016 1100.59 17.3633C1100.8 17.6211 1100.96 17.9277 1101.07 18.2832C1101.18 18.6348 1101.24 19.0234 1101.24 19.4492V19.877H1096.44V19.2793H1100.54V19.1973C1100.53 18.8418 1100.46 18.5098 1100.32 18.2012C1100.19 17.8887 1099.99 17.6348 1099.72 17.4395C1099.46 17.2441 1099.13 17.1465 1098.73 17.1465C1098.43 17.1465 1098.16 17.209 1097.91 17.334C1097.66 17.459 1097.45 17.6387 1097.27 17.873C1097.09 18.1035 1096.96 18.3789 1096.86 18.6992C1096.77 19.0156 1096.72 19.3672 1096.72 19.7539V20.0059C1096.72 20.3574 1096.77 20.6855 1096.87 20.9902C1096.98 21.291 1097.12 21.5566 1097.32 21.7871C1097.51 22.0176 1097.74 22.1973 1098.01 22.3262C1098.27 22.4551 1098.57 22.5195 1098.89 22.5195C1099.26 22.5195 1099.59 22.4512 1099.88 22.3145C1100.17 22.1738 1100.43 21.9531 1100.66 21.6523L1101.1 21.9922C1100.96 22.1953 1100.79 22.3828 1100.59 22.5547C1100.38 22.7266 1100.14 22.8633 1099.85 22.9648C1099.57 23.0664 1099.24 23.1172 1098.86 23.1172ZM1103.32 14V23H1102.62V14H1103.32ZM1107.29 16.6602L1104.33 19.6016L1103.07 20.8203L1102.96 20.1348L1103.98 19.0391L1106.41 16.6602H1107.29ZM1106.69 23L1104.04 19.707L1104.42 19.1035L1107.53 23H1106.69ZM1112.3 21.3828C1112.3 21.2109 1112.26 21.041 1112.17 20.873C1112.08 20.7051 1111.92 20.5508 1111.67 20.4102C1111.43 20.2695 1111.07 20.1504 1110.6 20.0527C1110.25 19.9746 1109.93 19.8867 1109.66 19.7891C1109.38 19.6914 1109.15 19.5742 1108.96 19.4375C1108.78 19.3008 1108.63 19.1367 1108.54 18.9453C1108.44 18.7539 1108.39 18.5273 1108.39 18.2656C1108.39 18.0312 1108.44 17.8105 1108.54 17.6035C1108.65 17.3926 1108.8 17.209 1108.99 17.0527C1109.18 16.8926 1109.42 16.7676 1109.69 16.6777C1109.97 16.5879 1110.28 16.543 1110.62 16.543C1111.11 16.543 1111.53 16.627 1111.88 16.7949C1112.23 16.959 1112.5 17.1836 1112.68 17.4688C1112.87 17.7539 1112.96 18.0762 1112.96 18.4355H1112.26C1112.26 18.2168 1112.2 18.0098 1112.07 17.8145C1111.95 17.6191 1111.76 17.459 1111.51 17.334C1111.27 17.209 1110.97 17.1465 1110.62 17.1465C1110.26 17.1465 1109.96 17.2012 1109.74 17.3105C1109.51 17.4199 1109.35 17.5586 1109.24 17.7266C1109.14 17.8945 1109.09 18.0684 1109.09 18.248C1109.09 18.3887 1109.11 18.5176 1109.15 18.6348C1109.2 18.748 1109.28 18.8535 1109.4 18.9512C1109.52 19.0488 1109.69 19.1406 1109.91 19.2266C1110.14 19.3125 1110.43 19.3965 1110.78 19.4785C1111.29 19.5918 1111.71 19.7305 1112.04 19.8945C1112.36 20.0547 1112.61 20.2539 1112.76 20.4922C1112.92 20.7266 1113 21.0117 1113 21.3477C1113 21.6094 1112.94 21.8496 1112.83 22.0684C1112.72 22.2832 1112.56 22.4688 1112.36 22.625C1112.15 22.7812 1111.91 22.9023 1111.62 22.9883C1111.33 23.0742 1111.01 23.1172 1110.66 23.1172C1110.12 23.1172 1109.67 23.0293 1109.3 22.8535C1108.93 22.6738 1108.65 22.4395 1108.46 22.1504C1108.27 21.8574 1108.18 21.5469 1108.18 21.2188H1108.88C1108.9 21.5469 1109 21.8066 1109.19 21.998C1109.37 22.1855 1109.6 22.3184 1109.86 22.3965C1110.13 22.4746 1110.4 22.5137 1110.66 22.5137C1111.02 22.5137 1111.32 22.4609 1111.56 22.3555C1111.8 22.25 1111.99 22.1113 1112.11 21.9395C1112.24 21.7676 1112.3 21.582 1112.3 21.3828ZM1117.13 19.9297V19.7363C1117.13 19.2754 1117.19 18.8496 1117.33 18.459C1117.46 18.0684 1117.65 17.7305 1117.89 17.4453C1118.14 17.1602 1118.44 16.9395 1118.79 16.7832C1119.14 16.623 1119.53 16.543 1119.95 16.543C1120.38 16.543 1120.77 16.623 1121.12 16.7832C1121.46 16.9395 1121.76 17.1602 1122.01 17.4453C1122.26 17.7305 1122.46 18.0684 1122.59 18.459C1122.72 18.8496 1122.79 19.2754 1122.79 19.7363V19.9297C1122.79 20.3906 1122.72 20.8164 1122.59 21.207C1122.46 21.5938 1122.26 21.9297 1122.01 22.2148C1121.77 22.5 1121.47 22.7227 1121.12 22.8828C1120.78 23.0391 1120.39 23.1172 1119.96 23.1172C1119.53 23.1172 1119.14 23.0391 1118.8 22.8828C1118.45 22.7227 1118.15 22.5 1117.9 22.2148C1117.65 21.9297 1117.46 21.5938 1117.33 21.207C1117.19 20.8164 1117.13 20.3906 1117.13 19.9297ZM1117.82 19.7363V19.9297C1117.82 20.2773 1117.87 20.6074 1117.96 20.9199C1118.06 21.2285 1118.2 21.5039 1118.38 21.7461C1118.55 21.9844 1118.78 22.1719 1119.04 22.3086C1119.31 22.4453 1119.62 22.5137 1119.96 22.5137C1120.31 22.5137 1120.61 22.4453 1120.87 22.3086C1121.14 22.1719 1121.36 21.9844 1121.54 21.7461C1121.72 21.5039 1121.85 21.2285 1121.94 20.9199C1122.04 20.6074 1122.08 20.2773 1122.08 19.9297V19.7363C1122.08 19.3926 1122.04 19.0664 1121.94 18.7578C1121.85 18.4492 1121.72 18.1738 1121.53 17.9316C1121.35 17.6895 1121.13 17.498 1120.87 17.3574C1120.6 17.2168 1120.29 17.1465 1119.95 17.1465C1119.61 17.1465 1119.3 17.2168 1119.04 17.3574C1118.78 17.498 1118.55 17.6895 1118.37 17.9316C1118.19 18.1738 1118.05 18.4492 1117.96 18.7578C1117.87 19.0664 1117.82 19.3926 1117.82 19.7363ZM1125.44 23H1124.74V15.875C1124.74 15.4414 1124.82 15.0762 1124.97 14.7793C1125.12 14.4824 1125.33 14.2578 1125.61 14.1055C1125.89 13.9531 1126.23 13.877 1126.61 13.877C1126.73 13.877 1126.86 13.8848 1126.99 13.9004C1127.12 13.9121 1127.24 13.9375 1127.36 13.9766L1127.31 14.5684C1127.21 14.541 1127.11 14.5234 1127.01 14.5156C1126.91 14.5039 1126.8 14.498 1126.67 14.498C1126.41 14.498 1126.19 14.5527 1126.01 14.6621C1125.83 14.7676 1125.69 14.9219 1125.59 15.125C1125.49 15.3281 1125.44 15.5781 1125.44 15.875V23ZM1126.95 16.6602V17.2344H1123.7V16.6602H1126.95ZM1130.76 19.9297V19.7363C1130.76 19.2754 1130.82 18.8496 1130.96 18.459C1131.09 18.0684 1131.28 17.7305 1131.52 17.4453C1131.77 17.1602 1132.07 16.9395 1132.42 16.7832C1132.77 16.623 1133.15 16.543 1133.58 16.543C1134.01 16.543 1134.4 16.623 1134.75 16.7832C1135.09 16.9395 1135.39 17.1602 1135.64 17.4453C1135.89 17.7305 1136.08 18.0684 1136.22 18.459C1136.35 18.8496 1136.42 19.2754 1136.42 19.7363V19.9297C1136.42 20.3906 1136.35 20.8164 1136.22 21.207C1136.08 21.5938 1135.89 21.9297 1135.64 22.2148C1135.4 22.5 1135.1 22.7227 1134.75 22.8828C1134.4 23.0391 1134.02 23.1172 1133.59 23.1172C1133.16 23.1172 1132.77 23.0391 1132.43 22.8828C1132.08 22.7227 1131.78 22.5 1131.53 22.2148C1131.28 21.9297 1131.09 21.5938 1130.96 21.207C1130.82 20.8164 1130.76 20.3906 1130.76 19.9297ZM1131.45 19.7363V19.9297C1131.45 20.2773 1131.5 20.6074 1131.59 20.9199C1131.69 21.2285 1131.82 21.5039 1132 21.7461C1132.18 21.9844 1132.41 22.1719 1132.67 22.3086C1132.94 22.4453 1133.24 22.5137 1133.59 22.5137C1133.94 22.5137 1134.24 22.4453 1134.5 22.3086C1134.77 22.1719 1134.99 21.9844 1135.17 21.7461C1135.35 21.5039 1135.48 21.2285 1135.57 20.9199C1135.67 20.6074 1135.71 20.2773 1135.71 19.9297V19.7363C1135.71 19.3926 1135.67 19.0664 1135.57 18.7578C1135.48 18.4492 1135.35 18.1738 1135.16 17.9316C1134.98 17.6895 1134.76 17.498 1134.49 17.3574C1134.23 17.2168 1133.92 17.1465 1133.58 17.1465C1133.24 17.1465 1132.93 17.2168 1132.67 17.3574C1132.4 17.498 1132.18 17.6895 1132 17.9316C1131.82 18.1738 1131.68 18.4492 1131.59 18.7578C1131.5 19.0664 1131.45 19.3926 1131.45 19.7363ZM1138.57 17.709V23H1137.87V16.6602H1138.55L1138.57 17.709ZM1140.81 16.6133L1140.79 17.2578C1140.71 17.2461 1140.64 17.2363 1140.56 17.2285C1140.49 17.2207 1140.41 17.2168 1140.32 17.2168C1140.02 17.2168 1139.75 17.2734 1139.52 17.3867C1139.29 17.4961 1139.1 17.6504 1138.95 17.8496C1138.79 18.0449 1138.67 18.2754 1138.59 18.541C1138.51 18.8027 1138.46 19.084 1138.45 19.3848L1138.19 19.4844C1138.19 19.0703 1138.23 18.6855 1138.32 18.3301C1138.41 17.9746 1138.54 17.6641 1138.71 17.3984C1138.89 17.1289 1139.12 16.9199 1139.39 16.7715C1139.66 16.6191 1139.98 16.543 1140.35 16.543C1140.44 16.543 1140.53 16.5508 1140.61 16.5664C1140.7 16.5781 1140.77 16.5938 1140.81 16.6133ZM1145.91 21.7695V14H1146.62V23H1145.96L1145.91 21.7695ZM1141.51 19.8945V19.7715C1141.51 19.2793 1141.57 18.8359 1141.68 18.4414C1141.8 18.043 1141.96 17.7031 1142.17 17.4219C1142.38 17.1367 1142.64 16.9199 1142.94 16.7715C1143.24 16.6191 1143.58 16.543 1143.96 16.543C1144.33 16.543 1144.66 16.6035 1144.95 16.7246C1145.23 16.8457 1145.48 17.0195 1145.68 17.2461C1145.89 17.4727 1146.05 17.7422 1146.18 18.0547C1146.31 18.3672 1146.4 18.7148 1146.46 19.0977V20.6621C1146.41 21.0215 1146.33 21.3516 1146.2 21.6523C1146.08 21.9492 1145.91 22.209 1145.7 22.4316C1145.5 22.6504 1145.25 22.8203 1144.95 22.9414C1144.66 23.0586 1144.33 23.1172 1143.95 23.1172C1143.58 23.1172 1143.24 23.0391 1142.94 22.8828C1142.64 22.7266 1142.38 22.5059 1142.17 22.2207C1141.96 21.9316 1141.8 21.5898 1141.68 21.1953C1141.57 20.8008 1141.51 20.3672 1141.51 19.8945ZM1142.22 19.7715V19.8945C1142.22 20.2656 1142.25 20.6094 1142.33 20.9258C1142.4 21.2422 1142.52 21.5176 1142.67 21.752C1142.82 21.9863 1143.01 22.1699 1143.25 22.3027C1143.48 22.4355 1143.76 22.502 1144.08 22.502C1144.48 22.502 1144.82 22.4258 1145.09 22.2734C1145.37 22.1172 1145.59 21.9121 1145.75 21.6582C1145.91 21.4004 1146.03 21.1191 1146.11 20.8145V18.9922C1146.06 18.7852 1145.99 18.5742 1145.9 18.3594C1145.81 18.1445 1145.69 17.9473 1145.53 17.7676C1145.38 17.584 1145.19 17.4375 1144.95 17.3281C1144.71 17.2148 1144.43 17.1582 1144.09 17.1582C1143.77 17.1582 1143.49 17.2246 1143.25 17.3574C1143.02 17.4902 1142.82 17.6758 1142.67 17.9141C1142.52 18.1484 1142.4 18.4238 1142.33 18.7402C1142.25 19.0566 1142.22 19.4004 1142.22 19.7715ZM1150.91 23.1172C1150.5 23.1172 1150.12 23.041 1149.77 22.8887C1149.43 22.7363 1149.12 22.5215 1148.87 22.2441C1148.61 21.9668 1148.42 21.6387 1148.28 21.2598C1148.14 20.877 1148.07 20.459 1148.07 20.0059V19.7539C1148.07 19.2656 1148.14 18.8242 1148.29 18.4297C1148.43 18.0352 1148.63 17.6973 1148.88 17.416C1149.14 17.1348 1149.43 16.9199 1149.75 16.7715C1150.08 16.6191 1150.42 16.543 1150.78 16.543C1151.19 16.543 1151.54 16.6152 1151.86 16.7598C1152.17 16.9004 1152.43 17.1016 1152.64 17.3633C1152.86 17.6211 1153.02 17.9277 1153.13 18.2832C1153.24 18.6348 1153.29 19.0234 1153.29 19.4492V19.877H1148.49V19.2793H1152.59V19.1973C1152.59 18.8418 1152.51 18.5098 1152.38 18.2012C1152.24 17.8887 1152.04 17.6348 1151.78 17.4395C1151.51 17.2441 1151.18 17.1465 1150.78 17.1465C1150.49 17.1465 1150.21 17.209 1149.96 17.334C1149.72 17.459 1149.5 17.6387 1149.32 17.873C1149.15 18.1035 1149.01 18.3789 1148.91 18.6992C1148.82 19.0156 1148.77 19.3672 1148.77 19.7539V20.0059C1148.77 20.3574 1148.82 20.6855 1148.93 20.9902C1149.03 21.291 1149.18 21.5566 1149.37 21.7871C1149.57 22.0176 1149.8 22.1973 1150.06 22.3262C1150.33 22.4551 1150.62 22.5195 1150.94 22.5195C1151.32 22.5195 1151.65 22.4512 1151.94 22.3145C1152.23 22.1738 1152.49 21.9531 1152.72 21.6523L1153.16 21.9922C1153.02 22.1953 1152.85 22.3828 1152.64 22.5547C1152.44 22.7266 1152.19 22.8633 1151.91 22.9648C1151.62 23.0664 1151.29 23.1172 1150.91 23.1172ZM1155.37 17.709V23H1154.67V16.6602H1155.35L1155.37 17.709ZM1157.62 16.6133L1157.6 17.2578C1157.52 17.2461 1157.44 17.2363 1157.37 17.2285C1157.29 17.2207 1157.21 17.2168 1157.13 17.2168C1156.82 17.2168 1156.56 17.2734 1156.33 17.3867C1156.1 17.4961 1155.91 17.6504 1155.75 17.8496C1155.6 18.0449 1155.48 18.2754 1155.39 18.541C1155.31 18.8027 1155.27 19.084 1155.25 19.3848L1155 19.4844C1155 19.0703 1155.04 18.6855 1155.12 18.3301C1155.21 17.9746 1155.34 17.6641 1155.52 17.3984C1155.7 17.1289 1155.92 16.9199 1156.19 16.7715C1156.46 16.6191 1156.79 16.543 1157.15 16.543C1157.24 16.543 1157.33 16.5508 1157.42 16.5664C1157.51 16.5781 1157.57 16.5938 1157.62 16.6133ZM1157.93 22.5723C1157.93 22.4355 1157.97 22.3203 1158.05 22.2266C1158.14 22.1289 1158.27 22.0801 1158.42 22.0801C1158.57 22.0801 1158.7 22.127 1158.79 22.2207C1158.88 22.3145 1158.92 22.4316 1158.92 22.5723C1158.92 22.7051 1158.88 22.8184 1158.79 22.9121C1158.7 23.0059 1158.57 23.0527 1158.42 23.0527C1158.27 23.0527 1158.14 23.0059 1158.05 22.9121C1157.97 22.8184 1157.93 22.7051 1157.93 22.5723Z" fill="#626262"/>
<path d="M761.059 24.1719H1159.94V24.7578H761.059V24.1719Z" fill="#626262"/>
<path d="M791.99 151.055C791.99 151.34 791.936 151.607 791.826 151.857C791.721 152.107 791.574 152.326 791.387 152.514C791.199 152.701 790.98 152.85 790.73 152.959C790.48 153.064 790.213 153.117 789.928 153.117H789.688C789.402 153.117 789.133 153.064 788.879 152.959C788.629 152.85 788.41 152.701 788.223 152.514C788.035 152.326 787.887 152.107 787.777 151.857C787.672 151.607 787.619 151.34 787.619 151.055V150.721L788.375 150.598V151.055C788.375 151.242 788.41 151.418 788.48 151.582C788.551 151.742 788.646 151.885 788.768 152.01C788.893 152.131 789.035 152.227 789.195 152.297C789.359 152.367 789.535 152.402 789.723 152.402H789.893C790.076 152.402 790.25 152.367 790.414 152.297C790.578 152.227 790.721 152.131 790.842 152.01C790.963 151.885 791.059 151.742 791.129 151.582C791.199 151.418 791.234 151.242 791.234 151.055V144.598H791.99V151.055ZM793.672 153V144.598H798.4V145.318H794.428V148.441H797.645V149.162H794.428V152.279H798.4V153H793.672ZM805.461 153H805.068L803.434 146.678L803.41 146.35L803.375 146.678L801.752 153H801.359L799.127 144.598H799.883L801.529 150.984L801.553 151.295L801.576 150.984L803.193 144.598H803.615L805.232 150.984L805.256 151.295L805.285 150.984L806.926 144.598H807.682L805.461 153ZM808.883 153V144.598H813.611V145.318H809.639V148.441H812.855V149.162H809.639V152.279H813.611V153H808.883ZM814.936 153V144.598H815.691V152.279H818.908V153H814.936ZM824.059 153L821.779 149.414H820.742V153H819.986V144.598H822.652C822.938 144.598 823.205 144.652 823.455 144.762C823.705 144.867 823.924 145.014 824.111 145.201C824.299 145.389 824.445 145.609 824.551 145.863C824.66 146.113 824.715 146.381 824.715 146.666V147.346C824.715 147.631 824.66 147.9 824.551 148.154C824.445 148.404 824.299 148.623 824.111 148.811C823.924 148.998 823.705 149.146 823.455 149.256C823.205 149.361 822.938 149.414 822.652 149.414L824.932 153H824.059ZM823.959 146.666C823.959 146.479 823.924 146.305 823.854 146.145C823.783 145.98 823.688 145.838 823.566 145.717C823.445 145.592 823.303 145.494 823.139 145.424C822.979 145.354 822.805 145.318 822.617 145.318H820.742V148.693H822.617C822.805 148.693 822.979 148.658 823.139 148.588C823.303 148.518 823.445 148.422 823.566 148.301C823.688 148.176 823.783 148.033 823.854 147.873C823.924 147.709 823.959 147.533 823.959 147.346V146.666ZM828.342 148.98V153H827.586V148.992L825.412 144.598H826.227L827.955 148.09L829.684 144.598H830.498L828.342 148.98Z" fill="#494949"/>
<path d="M871.848 151.055C871.848 151.34 871.793 151.607 871.684 151.857C871.578 152.107 871.432 152.326 871.244 152.514C871.057 152.701 870.838 152.85 870.588 152.959C870.338 153.064 870.07 153.117 869.785 153.117H869.188C868.902 153.117 868.633 153.064 868.379 152.959C868.129 152.85 867.91 152.701 867.723 152.514C867.535 152.326 867.387 152.107 867.277 151.857C867.172 151.607 867.119 151.34 867.119 151.055V146.543C867.119 146.258 867.172 145.99 867.277 145.74C867.387 145.49 867.535 145.271 867.723 145.084C867.91 144.896 868.129 144.75 868.379 144.645C868.633 144.535 868.902 144.48 869.188 144.48H869.785C870.07 144.48 870.338 144.535 870.588 144.645C870.838 144.75 871.057 144.896 871.244 145.084C871.432 145.271 871.578 145.49 871.684 145.74C871.793 145.99 871.848 146.258 871.848 146.543V146.883L871.092 147V146.543C871.092 146.355 871.057 146.182 870.986 146.021C870.916 145.857 870.82 145.715 870.699 145.594C870.578 145.473 870.436 145.377 870.271 145.307C870.111 145.236 869.938 145.201 869.75 145.201H869.223C869.035 145.201 868.859 145.236 868.695 145.307C868.535 145.377 868.393 145.473 868.268 145.594C868.146 145.715 868.051 145.857 867.98 146.021C867.91 146.182 867.875 146.355 867.875 146.543V151.055C867.875 151.242 867.91 151.418 867.98 151.582C868.051 151.742 868.146 151.885 868.268 152.01C868.393 152.131 868.535 152.227 868.695 152.297C868.859 152.367 869.035 152.402 869.223 152.402H869.75C869.938 152.402 870.111 152.367 870.271 152.297C870.436 152.227 870.578 152.131 870.699 152.01C870.82 151.885 870.916 151.742 870.986 151.582C871.057 151.418 871.092 151.242 871.092 151.055V150.598L871.848 150.721V151.055ZM876.688 151.043H874.027L873.477 153H872.691L875.152 144.598H875.551L878.023 153H877.244L876.688 151.043ZM874.232 150.322H876.488L875.381 146.449L875.357 146.139L875.334 146.449L874.232 150.322ZM884.275 153V147.24L884.223 147.598L882.271 153H881.873L879.904 147.598L879.857 147.24V153H879.102V144.598H879.494L882.043 151.488L882.066 151.799L882.09 151.488L884.633 144.598H885.031V153H884.275ZM891.682 147.709C891.682 147.994 891.627 148.262 891.518 148.512C891.412 148.762 891.266 148.98 891.078 149.168C890.891 149.355 890.67 149.504 890.416 149.613C890.166 149.719 889.898 149.771 889.613 149.771H887.709V153H886.953V144.598H889.613C889.898 144.598 890.166 144.652 890.416 144.762C890.67 144.867 890.891 145.014 891.078 145.201C891.266 145.389 891.412 145.609 891.518 145.863C891.627 146.113 891.682 146.381 891.682 146.666V147.709ZM890.926 146.666C890.926 146.479 890.891 146.305 890.82 146.145C890.75 145.98 890.652 145.838 890.527 145.717C890.406 145.592 890.264 145.494 890.1 145.424C889.939 145.354 889.766 145.318 889.578 145.318H887.709V149.051H889.578C889.766 149.051 889.939 149.016 890.1 148.945C890.264 148.875 890.406 148.779 890.527 148.658C890.652 148.537 890.75 148.396 890.82 148.236C890.891 148.072 890.926 147.896 890.926 147.709V146.666ZM896.281 151.043H893.621L893.07 153H892.285L894.746 144.598H895.145L897.617 153H896.838L896.281 151.043ZM893.826 150.322H896.082L894.975 146.449L894.951 146.139L894.928 146.449L893.826 150.322ZM898.695 153V144.598H899.451V153H898.695ZM905.984 153H905.744L905.305 152.326C905.121 152.568 904.898 152.762 904.637 152.906C904.375 153.047 904.084 153.117 903.764 153.117H903.324C903.039 153.117 902.77 153.064 902.516 152.959C902.266 152.85 902.047 152.701 901.859 152.514C901.672 152.326 901.523 152.107 901.414 151.857C901.309 151.607 901.256 151.34 901.256 151.055V146.543C901.256 146.258 901.309 145.99 901.414 145.74C901.523 145.49 901.672 145.271 901.859 145.084C902.047 144.896 902.266 144.75 902.516 144.645C902.77 144.535 903.039 144.48 903.324 144.48H903.922C904.207 144.48 904.475 144.535 904.725 144.645C904.975 144.75 905.193 144.896 905.381 145.084C905.568 145.271 905.715 145.49 905.82 145.74C905.93 145.99 905.984 146.258 905.984 146.543V146.883L905.229 147V146.543C905.229 146.355 905.193 146.182 905.123 146.021C905.053 145.857 904.957 145.715 904.836 145.594C904.715 145.473 904.572 145.377 904.408 145.307C904.248 145.236 904.074 145.201 903.887 145.201H903.359C903.172 145.201 902.996 145.236 902.832 145.307C902.672 145.377 902.529 145.473 902.404 145.594C902.283 145.715 902.188 145.857 902.117 146.021C902.047 146.182 902.012 146.355 902.012 146.543V151.055C902.012 151.242 902.047 151.418 902.117 151.582C902.188 151.742 902.283 151.885 902.404 152.01C902.529 152.131 902.672 152.227 902.832 152.297C902.996 152.367 903.172 152.402 903.359 152.402H903.887C904.074 152.402 904.248 152.367 904.408 152.297C904.572 152.227 904.715 152.131 904.836 152.01C904.957 151.885 905.053 151.742 905.123 151.582C905.193 151.418 905.229 151.242 905.229 151.055V149.303H903.887V148.582H905.984V153ZM912.119 153L908.615 146.883L908.545 146.52V153H907.789V144.598H908.182L911.686 150.721L911.762 151.078V144.598H912.518V153H912.119ZM919.051 151.055C919.051 151.34 918.992 151.607 918.875 151.857C918.762 152.107 918.607 152.326 918.412 152.514C918.221 152.701 917.996 152.85 917.738 152.959C917.484 153.064 917.215 153.117 916.93 153.117H916.326C916.041 153.117 915.77 153.064 915.512 152.959C915.258 152.85 915.033 152.701 914.838 152.514C914.646 152.326 914.492 152.107 914.375 151.857C914.262 151.607 914.205 151.34 914.205 151.055V150.721L914.961 150.598V151.055C914.961 151.242 914.998 151.418 915.072 151.582C915.15 151.742 915.254 151.885 915.383 152.01C915.512 152.131 915.66 152.227 915.828 152.297C916 152.367 916.18 152.402 916.367 152.402H916.895C917.082 152.402 917.26 152.367 917.428 152.297C917.596 152.227 917.744 152.131 917.873 152.01C918.002 151.885 918.104 151.742 918.178 151.582C918.256 151.418 918.295 151.242 918.295 151.055V150.803C918.295 150.514 918.238 150.273 918.125 150.082C918.012 149.891 917.861 149.729 917.674 149.596C917.486 149.459 917.273 149.344 917.035 149.25C916.801 149.156 916.559 149.062 916.309 148.969C916.059 148.875 915.814 148.771 915.576 148.658C915.342 148.545 915.131 148.404 914.943 148.236C914.756 148.064 914.605 147.855 914.492 147.609C914.379 147.363 914.322 147.061 914.322 146.701V146.543C914.322 146.258 914.375 145.99 914.48 145.74C914.59 145.49 914.738 145.271 914.926 145.084C915.113 144.896 915.332 144.75 915.582 144.645C915.836 144.535 916.105 144.48 916.391 144.48H916.93C917.215 144.48 917.482 144.535 917.732 144.645C917.982 144.75 918.201 144.896 918.389 145.084C918.576 145.271 918.723 145.49 918.828 145.74C918.938 145.99 918.992 146.258 918.992 146.543V146.76L918.236 146.883V146.543C918.236 146.355 918.201 146.182 918.131 146.021C918.061 145.857 917.965 145.715 917.844 145.594C917.723 145.473 917.58 145.377 917.416 145.307C917.256 145.236 917.082 145.201 916.895 145.201H916.426C916.238 145.201 916.062 145.236 915.898 145.307C915.738 145.377 915.596 145.473 915.471 145.594C915.35 145.715 915.254 145.857 915.184 146.021C915.113 146.182 915.078 146.355 915.078 146.543V146.701C915.078 146.971 915.135 147.197 915.248 147.381C915.361 147.564 915.512 147.723 915.699 147.855C915.887 147.984 916.098 148.098 916.332 148.195C916.57 148.289 916.814 148.387 917.064 148.488C917.314 148.586 917.557 148.695 917.791 148.816C918.029 148.934 918.242 149.08 918.43 149.256C918.617 149.428 918.768 149.639 918.881 149.889C918.994 150.139 919.051 150.443 919.051 150.803V151.055Z" fill="#494949"/>
<path d="M1100.9 151.055C1100.9 151.34 1100.85 151.607 1100.74 151.857C1100.63 152.107 1100.49 152.326 1100.3 152.514C1100.11 152.701 1099.89 152.85 1099.64 152.959C1099.39 153.064 1099.13 153.117 1098.84 153.117H1098.24C1097.96 153.117 1097.69 153.064 1097.44 152.959C1097.19 152.85 1096.97 152.701 1096.78 152.514C1096.59 152.326 1096.44 152.107 1096.33 151.857C1096.23 151.607 1096.18 151.34 1096.18 151.055V146.543C1096.18 146.258 1096.23 145.99 1096.33 145.74C1096.44 145.49 1096.59 145.271 1096.78 145.084C1096.97 144.896 1097.19 144.75 1097.44 144.645C1097.69 144.535 1097.96 144.48 1098.24 144.48H1098.84C1099.13 144.48 1099.39 144.535 1099.64 144.645C1099.89 144.75 1100.11 144.896 1100.3 145.084C1100.49 145.271 1100.63 145.49 1100.74 145.74C1100.85 145.99 1100.9 146.258 1100.9 146.543V146.883L1100.15 147V146.543C1100.15 146.355 1100.11 146.182 1100.04 146.021C1099.97 145.857 1099.88 145.715 1099.76 145.594C1099.63 145.473 1099.49 145.377 1099.33 145.307C1099.17 145.236 1098.99 145.201 1098.81 145.201H1098.28C1098.09 145.201 1097.92 145.236 1097.75 145.307C1097.59 145.377 1097.45 145.473 1097.32 145.594C1097.2 145.715 1097.11 145.857 1097.04 146.021C1096.97 146.182 1096.93 146.355 1096.93 146.543V151.055C1096.93 151.242 1096.97 151.418 1097.04 151.582C1097.11 151.742 1097.2 151.885 1097.32 152.01C1097.45 152.131 1097.59 152.227 1097.75 152.297C1097.92 152.367 1098.09 152.402 1098.28 152.402H1098.81C1098.99 152.402 1099.17 152.367 1099.33 152.297C1099.49 152.227 1099.63 152.131 1099.76 152.01C1099.88 151.885 1099.97 151.742 1100.04 151.582C1100.11 151.418 1100.15 151.242 1100.15 151.055V150.598L1100.9 150.721V151.055ZM1105.74 151.043H1103.08L1102.53 153H1101.75L1104.21 144.598H1104.61L1107.08 153H1106.3L1105.74 151.043ZM1103.29 150.322H1105.54L1104.44 146.449L1104.41 146.139L1104.39 146.449L1103.29 150.322ZM1112.11 153L1109.83 149.414H1108.79V153H1108.04V144.598H1110.7C1110.99 144.598 1111.25 144.652 1111.5 144.762C1111.75 144.867 1111.97 145.014 1112.16 145.201C1112.35 145.389 1112.49 145.609 1112.6 145.863C1112.71 146.113 1112.76 146.381 1112.76 146.666V147.346C1112.76 147.631 1112.71 147.9 1112.6 148.154C1112.49 148.404 1112.35 148.623 1112.16 148.811C1111.97 148.998 1111.75 149.146 1111.5 149.256C1111.25 149.361 1110.99 149.414 1110.7 149.414L1112.98 153H1112.11ZM1112.01 146.666C1112.01 146.479 1111.97 146.305 1111.9 146.145C1111.83 145.98 1111.74 145.838 1111.62 145.717C1111.49 145.592 1111.35 145.494 1111.19 145.424C1111.03 145.354 1110.85 145.318 1110.67 145.318H1108.79V148.693H1110.67C1110.85 148.693 1111.03 148.658 1111.19 148.588C1111.35 148.518 1111.49 148.422 1111.62 148.301C1111.74 148.176 1111.83 148.033 1111.9 147.873C1111.97 147.709 1112.01 147.533 1112.01 147.346V146.666ZM1116.47 145.318V153H1115.71V145.318H1113.71V144.598H1118.47V145.318H1116.47ZM1119.44 149.496C1119.44 148.844 1119.5 148.236 1119.62 147.674C1119.75 147.111 1119.92 146.588 1120.15 146.104C1120.37 145.615 1120.63 145.164 1120.94 144.75C1121.25 144.332 1121.58 143.945 1121.95 143.59L1122.37 144.012C1122.05 144.344 1121.75 144.711 1121.48 145.113C1121.21 145.516 1120.97 145.949 1120.78 146.414C1120.58 146.875 1120.43 147.363 1120.32 147.879C1120.21 148.395 1120.16 148.934 1120.16 149.496C1120.16 150.059 1120.21 150.598 1120.32 151.113C1120.43 151.629 1120.58 152.119 1120.78 152.584C1120.97 153.045 1121.21 153.477 1121.48 153.879C1121.75 154.281 1122.05 154.648 1122.37 154.98L1121.95 155.402C1121.58 155.047 1121.25 154.66 1120.94 154.242C1120.63 153.828 1120.37 153.377 1120.15 152.889C1119.92 152.4 1119.75 151.875 1119.62 151.312C1119.5 150.75 1119.44 150.145 1119.44 149.496ZM1125.48 145.201C1125.3 145.201 1125.12 145.236 1124.96 145.307C1124.8 145.377 1124.66 145.473 1124.54 145.594C1124.41 145.715 1124.32 145.857 1124.25 146.021C1124.18 146.182 1124.14 146.355 1124.14 146.543V146.883L1123.39 146.76V146.543C1123.39 146.258 1123.44 145.99 1123.54 145.74C1123.65 145.49 1123.8 145.271 1123.99 145.084C1124.18 144.896 1124.4 144.75 1124.65 144.645C1124.9 144.535 1125.16 144.48 1125.45 144.48H1125.81C1126.09 144.48 1126.36 144.531 1126.61 144.633C1126.86 144.734 1127.08 144.881 1127.27 145.072C1127.46 145.264 1127.61 145.494 1127.71 145.764C1127.82 146.029 1127.88 146.33 1127.88 146.666C1127.88 146.998 1127.82 147.332 1127.72 147.668C1127.62 148.004 1127.49 148.334 1127.33 148.658C1127.17 148.982 1126.98 149.297 1126.77 149.602C1126.57 149.906 1126.35 150.193 1126.13 150.463C1125.62 151.092 1125.04 151.697 1124.39 152.279H1127.93V153H1123.21V152.402C1123.94 151.801 1124.59 151.178 1125.16 150.533C1125.41 150.256 1125.65 149.961 1125.88 149.648C1126.12 149.336 1126.33 149.016 1126.51 148.688C1126.69 148.355 1126.84 148.02 1126.95 147.68C1127.06 147.336 1127.12 146.998 1127.12 146.666C1127.12 146.42 1127.08 146.205 1127.01 146.021C1126.93 145.838 1126.83 145.686 1126.71 145.564C1126.58 145.443 1126.44 145.354 1126.28 145.295C1126.12 145.232 1125.95 145.201 1125.77 145.201H1125.48ZM1131.94 149.496C1131.94 150.145 1131.88 150.75 1131.75 151.312C1131.63 151.875 1131.46 152.4 1131.23 152.889C1131.01 153.377 1130.74 153.828 1130.44 154.242C1130.13 154.66 1129.8 155.047 1129.43 155.402L1129.01 154.98C1129.34 154.648 1129.63 154.281 1129.9 153.879C1130.17 153.477 1130.4 153.045 1130.6 152.584C1130.79 152.119 1130.95 151.629 1131.06 151.113C1131.17 150.598 1131.22 150.059 1131.22 149.496C1131.22 148.934 1131.17 148.395 1131.06 147.879C1130.95 147.363 1130.79 146.875 1130.6 146.414C1130.4 145.949 1130.17 145.516 1129.9 145.113C1129.63 144.711 1129.34 144.344 1129.01 144.012L1129.43 143.59C1129.8 143.945 1130.13 144.332 1130.44 144.75C1130.74 145.164 1131.01 145.615 1131.23 146.104C1131.46 146.588 1131.63 147.111 1131.75 147.674C1131.88 148.236 1131.94 148.844 1131.94 149.496Z" fill="#494949"/>
<path d="M1027.97 151.055C1027.97 151.34 1027.91 151.607 1027.79 151.857C1027.68 152.107 1027.53 152.326 1027.33 152.514C1027.14 152.701 1026.91 152.85 1026.66 152.959C1026.4 153.064 1026.13 153.117 1025.85 153.117H1025.24C1024.96 153.117 1024.69 153.064 1024.43 152.959C1024.18 152.85 1023.95 152.701 1023.76 152.514C1023.56 152.326 1023.41 152.107 1023.29 151.857C1023.18 151.607 1023.12 151.34 1023.12 151.055V150.721L1023.88 150.598V151.055C1023.88 151.242 1023.92 151.418 1023.99 151.582C1024.07 151.742 1024.17 151.885 1024.3 152.01C1024.43 152.131 1024.58 152.227 1024.75 152.297C1024.92 152.367 1025.1 152.402 1025.29 152.402H1025.81C1026 152.402 1026.18 152.367 1026.35 152.297C1026.51 152.227 1026.66 152.131 1026.79 152.01C1026.92 151.885 1027.02 151.742 1027.1 151.582C1027.17 151.418 1027.21 151.242 1027.21 151.055V150.803C1027.21 150.514 1027.16 150.273 1027.04 150.082C1026.93 149.891 1026.78 149.729 1026.59 149.596C1026.4 149.459 1026.19 149.344 1025.95 149.25C1025.72 149.156 1025.48 149.062 1025.23 148.969C1024.98 148.875 1024.73 148.771 1024.49 148.658C1024.26 148.545 1024.05 148.404 1023.86 148.236C1023.67 148.064 1023.52 147.855 1023.41 147.609C1023.3 147.363 1023.24 147.061 1023.24 146.701V146.543C1023.24 146.258 1023.29 145.99 1023.4 145.74C1023.51 145.49 1023.66 145.271 1023.84 145.084C1024.03 144.896 1024.25 144.75 1024.5 144.645C1024.75 144.535 1025.02 144.48 1025.31 144.48H1025.85C1026.13 144.48 1026.4 144.535 1026.65 144.645C1026.9 144.75 1027.12 144.896 1027.31 145.084C1027.49 145.271 1027.64 145.49 1027.75 145.74C1027.86 145.99 1027.91 146.258 1027.91 146.543V146.76L1027.15 146.883V146.543C1027.15 146.355 1027.12 146.182 1027.05 146.021C1026.98 145.857 1026.88 145.715 1026.76 145.594C1026.64 145.473 1026.5 145.377 1026.33 145.307C1026.17 145.236 1026 145.201 1025.81 145.201H1025.34C1025.16 145.201 1024.98 145.236 1024.82 145.307C1024.66 145.377 1024.51 145.473 1024.39 145.594C1024.27 145.715 1024.17 145.857 1024.1 146.021C1024.03 146.182 1024 146.355 1024 146.543V146.701C1024 146.971 1024.05 147.197 1024.17 147.381C1024.28 147.564 1024.43 147.723 1024.62 147.855C1024.8 147.984 1025.02 148.098 1025.25 148.195C1025.49 148.289 1025.73 148.387 1025.98 148.488C1026.23 148.586 1026.47 148.695 1026.71 148.816C1026.95 148.934 1027.16 149.08 1027.35 149.256C1027.54 149.428 1027.69 149.639 1027.8 149.889C1027.91 150.139 1027.97 150.443 1027.97 150.803V151.055ZM1029.6 153V144.598H1034.33V145.318H1030.35V148.441H1033.57V149.162H1030.35V152.279H1034.33V153H1029.6ZM1038.93 151.043H1036.27L1035.71 153H1034.93L1037.39 144.598H1037.79L1040.26 153H1039.48L1038.93 151.043ZM1036.47 150.322H1038.73L1037.62 146.449L1037.6 146.139L1037.57 146.449L1036.47 150.322ZM1045.29 153L1043.01 149.414H1041.97V153H1041.22V144.598H1043.88C1044.17 144.598 1044.44 144.652 1044.69 144.762C1044.94 144.867 1045.15 145.014 1045.34 145.201C1045.53 145.389 1045.68 145.609 1045.78 145.863C1045.89 146.113 1045.95 146.381 1045.95 146.666V147.346C1045.95 147.631 1045.89 147.9 1045.78 148.154C1045.68 148.404 1045.53 148.623 1045.34 148.811C1045.15 148.998 1044.94 149.146 1044.69 149.256C1044.44 149.361 1044.17 149.414 1043.88 149.414L1046.16 153H1045.29ZM1045.19 146.666C1045.19 146.479 1045.15 146.305 1045.08 146.145C1045.01 145.98 1044.92 145.838 1044.8 145.717C1044.68 145.592 1044.53 145.494 1044.37 145.424C1044.21 145.354 1044.04 145.318 1043.85 145.318H1041.97V148.693H1043.85C1044.04 148.693 1044.21 148.658 1044.37 148.588C1044.53 148.518 1044.68 148.422 1044.8 148.301C1044.92 148.176 1045.01 148.033 1045.08 147.873C1045.15 147.709 1045.19 147.533 1045.19 147.346V146.666ZM1052.21 151.055C1052.21 151.34 1052.16 151.607 1052.05 151.857C1051.95 152.107 1051.8 152.326 1051.61 152.514C1051.42 152.701 1051.21 152.85 1050.96 152.959C1050.71 153.064 1050.44 153.117 1050.15 153.117H1049.55C1049.27 153.117 1049 153.064 1048.75 152.959C1048.5 152.85 1048.28 152.701 1048.09 152.514C1047.9 152.326 1047.75 152.107 1047.64 151.857C1047.54 151.607 1047.49 151.34 1047.49 151.055V146.543C1047.49 146.258 1047.54 145.99 1047.64 145.74C1047.75 145.49 1047.9 145.271 1048.09 145.084C1048.28 144.896 1048.5 144.75 1048.75 144.645C1049 144.535 1049.27 144.48 1049.55 144.48H1050.15C1050.44 144.48 1050.71 144.535 1050.96 144.645C1051.21 144.75 1051.42 144.896 1051.61 145.084C1051.8 145.271 1051.95 145.49 1052.05 145.74C1052.16 145.99 1052.21 146.258 1052.21 146.543V146.883L1051.46 147V146.543C1051.46 146.355 1051.42 146.182 1051.35 146.021C1051.28 145.857 1051.19 145.715 1051.07 145.594C1050.95 145.473 1050.8 145.377 1050.64 145.307C1050.48 145.236 1050.3 145.201 1050.12 145.201H1049.59C1049.4 145.201 1049.23 145.236 1049.06 145.307C1048.9 145.377 1048.76 145.473 1048.63 145.594C1048.51 145.715 1048.42 145.857 1048.35 146.021C1048.28 146.182 1048.24 146.355 1048.24 146.543V151.055C1048.24 151.242 1048.28 151.418 1048.35 151.582C1048.42 151.742 1048.51 151.885 1048.63 152.01C1048.76 152.131 1048.9 152.227 1049.06 152.297C1049.23 152.367 1049.4 152.402 1049.59 152.402H1050.12C1050.3 152.402 1050.48 152.367 1050.64 152.297C1050.8 152.227 1050.95 152.131 1051.07 152.01C1051.19 151.885 1051.28 151.742 1051.35 151.582C1051.42 151.418 1051.46 151.242 1051.46 151.055V150.598L1052.21 150.721V151.055ZM1057.88 153V149.162H1054.66V153H1053.9V144.598H1054.66V148.441H1057.88V144.598H1058.63V153H1057.88Z" fill="#494949"/>
<path d="M961.145 147.709C961.145 147.994 961.09 148.262 960.98 148.512C960.875 148.762 960.729 148.98 960.541 149.168C960.354 149.355 960.133 149.504 959.879 149.613C959.629 149.719 959.361 149.771 959.076 149.771H957.172V153H956.416V144.598H959.076C959.361 144.598 959.629 144.652 959.879 144.762C960.133 144.867 960.354 145.014 960.541 145.201C960.729 145.389 960.875 145.609 960.98 145.863C961.09 146.113 961.145 146.381 961.145 146.666V147.709ZM960.389 146.666C960.389 146.479 960.354 146.305 960.283 146.145C960.213 145.98 960.115 145.838 959.99 145.717C959.869 145.592 959.727 145.494 959.562 145.424C959.402 145.354 959.229 145.318 959.041 145.318H957.172V149.051H959.041C959.229 149.051 959.402 149.016 959.562 148.945C959.727 148.875 959.869 148.779 959.99 148.658C960.115 148.537 960.213 148.396 960.283 148.236C960.354 148.072 960.389 147.896 960.389 147.709V146.666ZM966.541 153L964.262 149.414H963.225V153H962.469V144.598H965.135C965.42 144.598 965.688 144.652 965.938 144.762C966.188 144.867 966.406 145.014 966.594 145.201C966.781 145.389 966.928 145.609 967.033 145.863C967.143 146.113 967.197 146.381 967.197 146.666V147.346C967.197 147.631 967.143 147.9 967.033 148.154C966.928 148.404 966.781 148.623 966.594 148.811C966.406 148.998 966.188 149.146 965.938 149.256C965.688 149.361 965.42 149.414 965.135 149.414L967.414 153H966.541ZM966.441 146.666C966.441 146.479 966.406 146.305 966.336 146.145C966.266 145.98 966.17 145.838 966.049 145.717C965.928 145.592 965.785 145.494 965.621 145.424C965.461 145.354 965.287 145.318 965.1 145.318H963.225V148.693H965.1C965.287 148.693 965.461 148.658 965.621 148.588C965.785 148.518 965.928 148.422 966.049 148.301C966.17 148.176 966.266 148.033 966.336 147.873C966.406 147.709 966.441 147.533 966.441 147.346V146.666ZM968.861 153V144.598H973.59V145.318H969.617V148.441H972.834V149.162H969.617V152.279H973.59V153H968.861ZM979.643 151.055C979.643 151.34 979.584 151.607 979.467 151.857C979.354 152.107 979.199 152.326 979.004 152.514C978.812 152.701 978.588 152.85 978.33 152.959C978.076 153.064 977.807 153.117 977.521 153.117H976.918C976.633 153.117 976.361 153.064 976.104 152.959C975.85 152.85 975.625 152.701 975.43 152.514C975.238 152.326 975.084 152.107 974.967 151.857C974.854 151.607 974.797 151.34 974.797 151.055V150.721L975.553 150.598V151.055C975.553 151.242 975.59 151.418 975.664 151.582C975.742 151.742 975.846 151.885 975.975 152.01C976.104 152.131 976.252 152.227 976.42 152.297C976.592 152.367 976.771 152.402 976.959 152.402H977.486C977.674 152.402 977.852 152.367 978.02 152.297C978.188 152.227 978.336 152.131 978.465 152.01C978.594 151.885 978.695 151.742 978.77 151.582C978.848 151.418 978.887 151.242 978.887 151.055V150.803C978.887 150.514 978.83 150.273 978.717 150.082C978.604 149.891 978.453 149.729 978.266 149.596C978.078 149.459 977.865 149.344 977.627 149.25C977.393 149.156 977.15 149.062 976.9 148.969C976.65 148.875 976.406 148.771 976.168 148.658C975.934 148.545 975.723 148.404 975.535 148.236C975.348 148.064 975.197 147.855 975.084 147.609C974.971 147.363 974.914 147.061 974.914 146.701V146.543C974.914 146.258 974.967 145.99 975.072 145.74C975.182 145.49 975.33 145.271 975.518 145.084C975.705 144.896 975.924 144.75 976.174 144.645C976.428 144.535 976.697 144.48 976.982 144.48H977.521C977.807 144.48 978.074 144.535 978.324 144.645C978.574 144.75 978.793 144.896 978.98 145.084C979.168 145.271 979.314 145.49 979.42 145.74C979.529 145.99 979.584 146.258 979.584 146.543V146.76L978.828 146.883V146.543C978.828 146.355 978.793 146.182 978.723 146.021C978.652 145.857 978.557 145.715 978.436 145.594C978.314 145.473 978.172 145.377 978.008 145.307C977.848 145.236 977.674 145.201 977.486 145.201H977.018C976.83 145.201 976.654 145.236 976.49 145.307C976.33 145.377 976.188 145.473 976.062 145.594C975.941 145.715 975.846 145.857 975.775 146.021C975.705 146.182 975.67 146.355 975.67 146.543V146.701C975.67 146.971 975.727 147.197 975.84 147.381C975.953 147.564 976.104 147.723 976.291 147.855C976.479 147.984 976.689 148.098 976.924 148.195C977.162 148.289 977.406 148.387 977.656 148.488C977.906 148.586 978.148 148.695 978.383 148.816C978.621 148.934 978.834 149.08 979.021 149.256C979.209 149.428 979.359 149.639 979.473 149.889C979.586 150.139 979.643 150.443 979.643 150.803V151.055ZM985.877 151.055C985.877 151.34 985.818 151.607 985.701 151.857C985.588 152.107 985.434 152.326 985.238 152.514C985.047 152.701 984.822 152.85 984.564 152.959C984.311 153.064 984.041 153.117 983.756 153.117H983.152C982.867 153.117 982.596 153.064 982.338 152.959C982.084 152.85 981.859 152.701 981.664 152.514C981.473 152.326 981.318 152.107 981.201 151.857C981.088 151.607 981.031 151.34 981.031 151.055V150.721L981.787 150.598V151.055C981.787 151.242 981.824 151.418 981.898 151.582C981.977 151.742 982.08 151.885 982.209 152.01C982.338 152.131 982.486 152.227 982.654 152.297C982.826 152.367 983.006 152.402 983.193 152.402H983.721C983.908 152.402 984.086 152.367 984.254 152.297C984.422 152.227 984.57 152.131 984.699 152.01C984.828 151.885 984.93 151.742 985.004 151.582C985.082 151.418 985.121 151.242 985.121 151.055V150.803C985.121 150.514 985.064 150.273 984.951 150.082C984.838 149.891 984.688 149.729 984.5 149.596C984.312 149.459 984.1 149.344 983.861 149.25C983.627 149.156 983.385 149.062 983.135 148.969C982.885 148.875 982.641 148.771 982.402 148.658C982.168 148.545 981.957 148.404 981.77 148.236C981.582 148.064 981.432 147.855 981.318 147.609C981.205 147.363 981.148 147.061 981.148 146.701V146.543C981.148 146.258 981.201 145.99 981.307 145.74C981.416 145.49 981.564 145.271 981.752 145.084C981.939 144.896 982.158 144.75 982.408 144.645C982.662 144.535 982.932 144.48 983.217 144.48H983.756C984.041 144.48 984.309 144.535 984.559 144.645C984.809 144.75 985.027 144.896 985.215 145.084C985.402 145.271 985.549 145.49 985.654 145.74C985.764 145.99 985.818 146.258 985.818 146.543V146.76L985.062 146.883V146.543C985.062 146.355 985.027 146.182 984.957 146.021C984.887 145.857 984.791 145.715 984.67 145.594C984.549 145.473 984.406 145.377 984.242 145.307C984.082 145.236 983.908 145.201 983.721 145.201H983.252C983.064 145.201 982.889 145.236 982.725 145.307C982.564 145.377 982.422 145.473 982.297 145.594C982.176 145.715 982.08 145.857 982.01 146.021C981.939 146.182 981.904 146.355 981.904 146.543V146.701C981.904 146.971 981.961 147.197 982.074 147.381C982.188 147.564 982.338 147.723 982.525 147.855C982.713 147.984 982.924 148.098 983.158 148.195C983.396 148.289 983.641 148.387 983.891 148.488C984.141 148.586 984.383 148.695 984.617 148.816C984.855 148.934 985.068 149.08 985.256 149.256C985.443 149.428 985.594 149.639 985.707 149.889C985.82 150.139 985.877 150.443 985.877 150.803V151.055Z" fill="#494949"/>
<path d="M914.239 105.84L913.759 101.04H910.159L909.679 105.84H905.935L909.295 72.2402H915.055L918.463 105.84H914.239ZM910.735 94.7522L910.543 97.1042H913.375L913.183 94.8962C912.575 88.0802 912.159 82.0162 911.935 76.7042C911.743 81.4082 911.343 87.4242 910.735 94.7522Z" fill="black"/>
<path d="M922.512 105.84V72.2402H929.28C931.136 72.2402 932.384 72.6082 933.024 73.3442C933.664 74.0802 933.984 75.4722 933.984 77.5202V87.8882C933.984 89.9362 933.664 91.3282 933.024 92.0642C932.384 92.8002 931.136 93.1682 929.28 93.1682H926.688V105.84H922.512ZM926.688 89.2322H928.464C929.04 89.2322 929.408 89.1042 929.568 88.8482C929.728 88.5922 929.808 88.0802 929.808 87.3122V78.0962C929.808 77.3282 929.728 76.8162 929.568 76.5602C929.408 76.3042 929.04 76.1762 928.464 76.1762H926.688V89.2322Z" fill="black"/>
<path d="M944.82 105.84L944.34 101.04H940.74L940.26 105.84H936.516L939.876 72.2402H945.636L949.044 105.84H944.82ZM941.316 94.7522L941.124 97.1042H943.956L943.764 94.8962C943.156 88.0802 942.74 82.0162 942.516 76.7042C942.324 81.4082 941.924 87.4242 941.316 94.7522Z" fill="black"/>
<path d="M964.661 93.8882V101.28C964.661 103.2 964.869 104.72 965.285 105.84H960.917C960.629 105.232 960.485 103.888 960.485 101.808V93.0722C960.485 92.2722 960.373 91.7122 960.149 91.3922C959.925 91.0402 959.493 90.8642 958.853 90.8642H957.221V105.84H953.045V72.2402H959.909C961.765 72.2402 963.013 72.6082 963.653 73.3442C964.325 74.0802 964.661 75.4722 964.661 77.5202V83.9522C964.661 85.4882 964.485 86.6402 964.133 87.4082C963.781 88.1442 963.173 88.6402 962.309 88.8962C963.173 89.1522 963.781 89.6642 964.133 90.4322C964.485 91.2002 964.661 92.3522 964.661 93.8882ZM960.485 85.0082V78.0962C960.485 77.3282 960.405 76.8162 960.245 76.5602C960.085 76.3042 959.717 76.1762 959.141 76.1762H957.221V86.9282H959.141C959.717 86.9282 960.085 86.8002 960.245 86.5442C960.405 86.2882 960.485 85.7762 960.485 85.0082Z" fill="black"/>
<path d="M973.544 76.1762V86.3522H977.384V90.2882H973.544V101.904H978.248V105.84H969.368V72.2402H978.248V76.1762H973.544Z" fill="black"/>
<path d="M982.503 105.84V72.2402H986.679V101.904H990.759V105.84H982.503Z" fill="black"/>
<path d="M1014.9 100.224V96C1014.9 94.72 1014.71 93.712 1014.32 92.976C1013.94 92.24 1013.11 91.184 1011.83 89.808C1010.23 87.984 1009.15 86.528 1008.61 85.44C1008.1 84.32 1007.84 82.752 1007.84 80.736V77.28C1007.84 75.232 1008.16 73.84 1008.8 73.104C1009.47 72.368 1010.74 72 1012.59 72H1014.37C1016.23 72 1017.47 72.368 1018.11 73.104C1018.75 73.84 1019.07 75.232 1019.07 77.28V83.856H1015.14V77.856C1015.14 77.088 1015.06 76.576 1014.9 76.32C1014.77 76.064 1014.4 75.936 1013.79 75.936H1013.36C1012.79 75.936 1012.42 76.064 1012.26 76.32C1012.1 76.576 1012.02 77.056 1012.02 77.76V80.928C1012.02 82.208 1012.19 83.216 1012.55 83.952C1012.93 84.688 1013.76 85.744 1015.04 87.12C1016.67 88.944 1017.75 90.416 1018.26 91.536C1018.8 92.624 1019.07 94.176 1019.07 96.192V100.8C1019.07 102.848 1018.75 104.24 1018.11 104.976C1017.47 105.712 1016.23 106.08 1014.37 106.08H1012.59C1010.74 106.08 1009.47 105.712 1008.8 104.976C1008.16 104.24 1007.84 102.848 1007.84 100.8V92.976H1011.78V100.224C1011.78 100.992 1011.84 101.504 1011.97 101.76C1012.13 102.016 1012.51 102.144 1013.12 102.144H1013.55C1014.13 102.144 1014.5 102.016 1014.66 101.76C1014.82 101.504 1014.9 100.992 1014.9 100.224Z" fill="black"/>
<path d="M994.117 91.2272C991.406 89.8018 990.614 87.6368 990.954 84.8804C994.123 85.5571 995.387 88.1679 994.117 91.2272Z" fill="black"/>
<path d="M1000.28 78.7048C999.415 75.8719 1000.24 74.1114 1002.82 73.1642C1003.52 75.9149 1002.53 78.1243 1000.28 78.7048Z" fill="black"/>
<path d="M994.69 89.914C996.15 87.8731 998.165 87.801 1000.7 89.6991C998.751 91.6306 996.772 91.7014 994.69 89.914Z" fill="black"/>
<path d="M998.992 82.0332C1000.84 79.6557 1002.75 79.3896 1004.84 79.7295C1003.47 82.3759 1001.31 83.2733 998.992 82.0332Z" fill="black"/>
<path d="M994.262 81.3955C996.751 82.537 997.291 84.4624 997.186 86.7795C994.98 86.005 993.98 84.2689 994.262 81.3955Z" fill="black"/>
<path d="M987.951 88.9867C990.533 89.6401 991.543 91.4358 990.926 94.4901C988.408 93.8438 987.333 91.8267 987.951 88.9867Z" fill="black"/>
<path d="M990.811 94.6097C992.909 92.6042 994.713 92.554 996.848 94.4237C995.015 96.3477 993.449 96.4133 990.811 94.6097Z" fill="black"/>
<path d="M1003.72 84.6511C1001.74 86.2798 999.681 86.6713 997.451 85.8217C998.902 83.7046 1001.44 83.2035 1003.72 84.6511Z" fill="black"/>
<path d="M998.929 82.7809C997.411 81.2953 996.434 79.7912 996.813 77.5915C999.079 78.5646 999.79 80.1696 998.929 82.7809Z" fill="black"/>
<path fill-rule="evenodd" clip-rule="evenodd" d="M1000.13 79.9148C999.596 81.4797 998.716 83.6049 997.315 86.3028C995.897 89.0317 993.587 91.8564 991.292 94.2702C988.993 96.6872 986.69 98.7115 985.266 99.8398L984.843 99.2658C986.241 98.1572 988.52 96.1551 990.795 93.7629C993.074 91.3674 995.329 88.5999 996.701 85.9602C998.088 83.2896 998.952 81.1991 999.468 79.6754C999.988 78.139 1000.15 77.2061 1000.15 76.8398H1000.84C1000.84 77.3339 1000.65 78.3626 1000.13 79.9148Z" fill="black"/>
</svg>
