<svg width="216" height="58" viewBox="0 0 216 58" fill="none" xmlns="http://www.w3.org/2000/svg">
<path d="M11.032 45V12.36H21.256C24.808 12.36 27.848 13.176 30.376 14.808C32.904 16.408 34.168 19.08 34.168 22.824C34.168 26.536 32.808 29.272 30.088 31.032C27.368 32.76 24.28 33.624 20.824 33.624H17.224V45H11.032ZM21.064 17.544H17.224V28.488H21.16C23.016 28.488 24.52 28.072 25.672 27.24C26.824 26.376 27.464 25.032 27.592 23.208C27.592 21.096 27.016 19.624 25.864 18.792C24.712 17.96 23.112 17.544 21.064 17.544ZM41.1483 38.04C41.1483 38.712 41.4203 39.32 41.9643 39.864C42.5083 40.376 43.2283 40.632 44.1243 40.632C44.9883 40.632 45.8523 40.44 46.7163 40.056C47.6123 39.672 48.4603 39.096 49.2603 38.328V34.776H44.5563C43.4683 34.776 42.6203 35.112 42.0123 35.784C41.4363 36.456 41.1483 37.208 41.1483 38.04ZM44.2203 45.576C41.3723 45.576 39.2603 44.888 37.8843 43.512C36.5083 42.104 35.8203 40.28 35.8203 38.04C35.8203 35.64 36.6363 33.8 38.2683 32.52C39.9003 31.24 42.0283 30.6 44.6523 30.6H49.2123C49.1803 29.416 48.8283 28.504 48.1563 27.864C47.5163 27.192 46.6203 26.856 45.4683 26.856C44.3803 26.856 43.1963 27.016 41.9163 27.336C40.6363 27.624 39.5643 27.976 38.7003 28.392L37.0203 23.208C37.9163 22.6 39.2763 22.104 41.1003 21.72C42.9563 21.304 44.3803 21.096 45.3723 21.096C48.1563 21.096 50.5403 21.912 52.5243 23.544C54.5083 25.144 55.5003 27.192 55.5003 29.688V45H52.2843L50.7483 43.032C49.8843 43.704 48.8603 44.296 47.6763 44.808C46.5243 45.32 45.3723 45.576 44.2203 45.576ZM71.3703 21.72L72.6183 26.712C71.5623 26.712 70.3303 27.016 68.9223 27.624C67.5463 28.232 66.1863 29.128 64.8423 30.312V45H58.6023V21.72H61.8663L63.9303 25.128C64.8903 24.296 66.0583 23.528 67.4343 22.824C68.8103 22.088 70.1223 21.72 71.3703 21.72ZM87.5654 44.52C87.0534 44.936 86.3174 45.272 85.3574 45.528C84.4294 45.816 83.5974 45.96 82.8614 45.96C79.9814 45.96 77.7094 45.24 76.0454 43.8C74.4134 42.328 73.5974 40.248 73.5974 37.56V26.568H70.4774V21.768H73.5974V16.248L79.7894 15.144V21.768H84.0134L85.9334 26.568H79.7894V36.456C79.7894 37.672 80.0774 38.68 80.6534 39.48C81.2294 40.248 82.0774 40.632 83.1974 40.632C83.6134 40.632 84.0294 40.584 84.4454 40.488C84.8614 40.392 85.2934 40.232 85.7414 40.008L87.5654 44.52ZM91.5048 11.4C92.4968 11.4 93.3288 11.736 94.0008 12.408C94.7048 13.08 95.0568 13.912 95.0568 14.904C95.0568 15.896 94.7048 16.728 94.0008 17.4C93.3288 18.072 92.4968 18.408 91.5048 18.408C90.5448 18.408 89.7288 18.072 89.0568 17.4C88.3848 16.728 88.0488 15.896 88.0488 14.904C88.0488 13.912 88.3848 13.08 89.0568 12.408C89.7288 11.736 90.5448 11.4 91.5048 11.4ZM94.6248 21.72V45H88.3848V21.72H94.6248ZM109.114 26.424C107.354 26.424 105.978 27.096 104.986 28.44C103.994 29.752 103.498 31.4 103.498 33.384C103.498 35.4 103.994 37.048 104.986 38.328C105.978 39.608 107.354 40.248 109.114 40.248C110.202 40.248 111.178 40.12 112.042 39.864C112.938 39.576 113.946 39.176 115.066 38.664L116.842 43.176C115.754 44.008 114.426 44.616 112.858 45C111.322 45.384 110.058 45.576 109.066 45.576C105.29 45.576 102.346 44.472 100.234 42.264C98.122 40.056 97.066 37.096 97.066 33.384C97.066 29.672 98.122 26.696 100.234 24.456C102.346 22.216 105.29 21.096 109.066 21.096C110.058 21.096 111.306 21.304 112.81 21.72C114.346 22.136 115.69 22.744 116.842 23.544L115.066 28.008C113.946 27.496 112.938 27.112 112.042 26.856C111.178 26.568 110.202 26.424 109.114 26.424ZM121.85 11.4C122.842 11.4 123.674 11.736 124.346 12.408C125.05 13.08 125.402 13.912 125.402 14.904C125.402 15.896 125.05 16.728 124.346 17.4C123.674 18.072 122.842 18.408 121.85 18.408C120.89 18.408 120.074 18.072 119.402 17.4C118.73 16.728 118.394 15.896 118.394 14.904C118.394 13.912 118.73 13.08 119.402 12.408C120.074 11.736 120.89 11.4 121.85 11.4ZM124.97 21.72V45H118.73V21.72H124.97ZM139.027 40.248C141.171 40.248 142.675 39.48 143.539 37.944C144.403 36.376 144.835 34.792 144.835 33.192C144.835 31.368 144.451 29.736 143.683 28.296C142.915 26.856 141.363 26.136 139.027 26.136C138.355 26.136 137.651 26.264 136.915 26.52C136.211 26.744 135.539 27.064 134.899 27.48V38.904C135.539 39.288 136.211 39.608 136.915 39.864C137.651 40.12 138.355 40.248 139.027 40.248ZM128.707 21.72H131.875L133.219 23.448C134.275 22.648 135.507 22.008 136.915 21.528C138.323 21.048 139.571 20.808 140.659 20.808C144.083 20.808 146.707 21.992 148.531 24.36C150.355 26.728 151.267 29.672 151.267 33.192C151.267 36.712 150.323 39.656 148.435 42.024C146.579 44.392 143.987 45.576 140.659 45.576C139.827 45.576 138.883 45.432 137.827 45.144C136.803 44.856 135.827 44.456 134.899 43.944V55.032L128.707 55.512V21.72ZM160.15 11.112V45H153.958V11.64L160.15 11.112ZM175.78 45.576C171.748 45.576 168.564 44.472 166.228 42.264C163.924 40.056 162.772 37.096 162.772 33.384C162.772 29.672 163.812 26.696 165.892 24.456C168.004 22.216 170.868 21.096 174.484 21.096C178.132 21.096 180.804 22.312 182.5 24.744C184.228 27.144 185.092 29.992 185.092 33.288V35.208H169.396C169.684 36.744 170.388 37.976 171.508 38.904C172.628 39.8 174.1 40.248 175.924 40.248C176.98 40.248 177.924 40.12 178.756 39.864C179.62 39.576 180.612 39.176 181.732 38.664L183.556 43.176C182.468 44.008 181.14 44.616 179.572 45C178.036 45.384 176.772 45.576 175.78 45.576ZM179.188 31.032C178.868 29.464 178.292 28.312 177.46 27.576C176.628 26.808 175.588 26.424 174.34 26.424C173.06 26.424 171.988 26.824 171.124 27.624C170.26 28.392 169.7 29.528 169.444 31.032H179.188ZM207.984 34.2H199.68V44.808L193.824 44.616V34.2H185.424L185.04 29.448H193.824V19.512H199.68V29.448H207.504L207.984 34.2Z" fill="black"/>
</svg>
